<?xml version="1.0" encoding="UTF-8" standalone="no"?>
<svg
   xmlns:dc="http://purl.org/dc/elements/1.1/"
   xmlns:cc="http://creativecommons.org/ns#"
   xmlns:rdf="http://www.w3.org/1999/02/22-rdf-syntax-ns#"
   xmlns:svg="http://www.w3.org/2000/svg"
   xmlns="http://www.w3.org/2000/svg"
   xmlns:sodipodi="http://sodipodi.sourceforge.net/DTD/sodipodi-0.dtd"
   xmlns:inkscape="http://www.inkscape.org/namespaces/inkscape"
   width="297mm"
   height="210mm"
   viewBox="0 0 297 210"
   version="1.1"
   id="svg3719"
   inkscape:version="1.0.1 (3bc2e813f5, 2020-09-07)"
   sodipodi:docname="wuffs-logo.svg"
   inkscape:export-filename="/home/nt/wip/wombat-kicking-arse/a.png"
   inkscape:export-xdpi="21.889999"
   inkscape:export-ydpi="21.889999">
  <defs
     id="defs3713" />
  <sodipodi:namedview
     id="base"
     pagecolor="#ffffff"
     bordercolor="#666666"
     borderopacity="1.0"
     inkscape:pageopacity="0.0"
     inkscape:pageshadow="2"
     inkscape:zoom="1.9553968"
     inkscape:cx="384.82507"
     inkscape:cy="396.85039"
     inkscape:document-units="mm"
     inkscape:current-layer="layer1"
     showgrid="false"
     inkscape:window-width="3200"
     inkscape:window-height="1800"
     inkscape:window-x="0"
     inkscape:window-y="0"
     inkscape:window-maximized="0"
     inkscape:document-rotation="0" />
  <metadata
     id="metadata3716">
    <rdf:RDF>
      <cc:Work
         rdf:about="">
        <dc:format>image/svg+xml</dc:format>
        <dc:type
           rdf:resource="http://purl.org/dc/dcmitype/StillImage" />
        <dc:title />
      </cc:Work>
    </rdf:RDF>
  </metadata>
  <g
     inkscape:label="Wombat"
     inkscape:groupmode="layer"
     id="layer1"
     transform="translate(0,-87)"
     style="display:inline">
    <path
       style="fill:#ffffff;fill-rule:evenodd;stroke:#000000;stroke-width:2;stroke-linecap:butt;stroke-linejoin:miter;stroke-miterlimit:4;stroke-dasharray:none;stroke-opacity:1"
       d="m 71.371767,252.51948 c 0,0 -7.115557,14.96717 -7.09904,17.52527 0.01702,2.63597 1.781817,6.87272 1.781817,6.87272 0,0 5.472724,2.29091 7.763637,3.56364 2.290906,1.27272 2.832324,3.87373 0.132461,5.13367 -2.699862,1.25993 -13.833711,2.41444 -21.393325,2.59443 -7.559614,0.17999 -13.949286,-0.35998 -16.469159,-1.43993 -2.519868,-1.07994 -3.61001,-2.79787 -3.329829,-5.66971 0.359982,-3.68981 5.126578,-9.18532 6.839651,-11.51941 2.088263,-2.84529 4.863438,-11.06839 4.773441,-15.38817 -0.09,-4.31978 -1.893589,-17.01018 -1.893589,-17.01018"
       id="path3767"
       inkscape:connector-curvature="0"
       sodipodi:nodetypes="cscsssssssc" />
    <path
       style="fill:none;fill-rule:evenodd;stroke:#000000;stroke-width:6;stroke-linecap:round;stroke-linejoin:miter;stroke-miterlimit:4;stroke-dasharray:none;stroke-opacity:1"
       d="M 97.548218,284.18841 154.67026,125.9591 c 0,0 -3.32845,-7.425 -0.51207,-14.08189 2.81638,-6.65691 4.60862,-10.75348 12.28965,-10.75348 7.68104,0 10.75345,4.86468 11.52155,8.19313 0.76811,3.32845 -3.07241,8.96121 -3.07241,8.96121"
       id="path4593"
       inkscape:connector-curvature="0"
       sodipodi:nodetypes="ccsscc" />
    <path
       style="fill:#ffffff;fill-rule:evenodd;stroke:#000000;stroke-width:2;stroke-linecap:butt;stroke-linejoin:miter;stroke-miterlimit:4;stroke-dasharray:none;stroke-opacity:1"
       d="m 106.58445,190.1698 17.29548,-0.68959 c 0,0 1.22197,-2.67692 4.11295,-3.35918 2.89097,-0.68226 7.75339,-0.48944 9.56669,5.20908 1.8133,5.69852 -1.96248,12.72712 -5.29464,14.89536 -3.33216,2.16824 -7.78649,1.39251 -10.0077,-0.15691 -2.22121,-1.54942 -3.31971,-3.84138 -3.31971,-3.84138 l -13.58634,-1.14448"
       id="path4597"
       inkscape:connector-curvature="0"
       sodipodi:nodetypes="cczzzzcc" />
    <path
       style="fill:#ffffff;fill-rule:evenodd;stroke:#000000;stroke-width:2.5;stroke-linecap:butt;stroke-linejoin:miter;stroke-miterlimit:4;stroke-dasharray:none;stroke-opacity:1"
       d="m 85.006203,180.31451 c 0,0 18.093537,-6.98178 21.352317,-3.36091 3.25879,3.62088 8.13707,19.02558 8.54408,28.62752 0.40701,9.60194 -1.1814,14.02719 -7.99808,20.68437 -6.81669,6.65718 -20.449969,-0.14692 -20.449969,-0.14692 z"
       id="path4595"
       inkscape:connector-curvature="0"
       sodipodi:nodetypes="czzzcc" />
    <path
       style="fill:#ffffff;fill-rule:evenodd;stroke:#000000;stroke-width:3;stroke-linecap:butt;stroke-linejoin:miter;stroke-miterlimit:4;stroke-dasharray:none;stroke-opacity:1"
       d="m 86.799998,215.95383 c 0,0 6.864995,-0.75669 11.454546,0.76364 4.589546,1.52034 11.521186,5.4121 14.890906,8.78182 3.94546,3.94546 7.12419,8.15891 9.92727,8.78182 2.80308,0.6229 7.63637,0.50909 7.63637,0.50909 0,0 2.92726,-4.58183 5.0909,-6.23637 2.16364,-1.65455 5.3201,-3.24375 6.87273,-1.4 1.55264,1.84375 1.64072,7.10265 0.12728,11.70909 -1.51344,4.60644 -6.2922,12.1607 -8.01818,14.89091 -1.72599,2.73021 -4.26948,7.53095 -7.5091,7.89091 -3.23961,0.35996 -7.13009,-3.03748 -11.32727,-3.43636 -4.19719,-0.39889 -11.83636,0.89091 -16.290905,1.27273 -4.454547,0.38182 -21.935211,1.49694 -29.272728,0.12727 C 63.0443,258.23871 49.960354,254.3836 45.181818,250.19019 40.403282,245.99678 37.848146,236.20948 37.545454,229.95383 37.242762,223.69818 38.054545,212.89929 42,204.88111 c 3.945455,-8.01818 11.423787,-14.8733 15.527271,-20.61818 4.454546,-6.23637 11.200001,-14.25455 10.818183,-21.25455 -0.381818,-7 -1.326243,-14.1224 1.018181,-22.01818 2.344423,-7.89577 5.325767,-13.08112 12.727272,-17.05455 7.401505,-3.97343 14.636366,-5.85454 21.763643,-5.6 7.12727,0.25455 13.23765,2.07025 18.58181,7.89091 5.34416,5.82067 8.44905,13.30544 9.18816,24.91636 0.73912,11.61092 -4.35179,24.08365 -10.58816,29.04728 -6.23637,4.96363 -10.30909,6.10909 -16.92727,5.34545"
       id="path12"
       inkscape:connector-curvature="0"
       sodipodi:nodetypes="czszcszzzzzszzzzszzzzzzzc" />
    <path
       style="fill:#ffffff;fill-rule:evenodd;stroke:#000000;stroke-width:2.5;stroke-linecap:butt;stroke-linejoin:miter;stroke-miterlimit:4;stroke-dasharray:none;stroke-opacity:1"
       d="m 64.527957,191.77406 c 0,0 -4.70909,8.40001 -8.018181,12.72728 -3.309091,4.32727 -8.527273,7.25454 -9.290909,12.34545 -0.605327,4.03552 -0.07798,6.86405 5.090909,9.41818 5.168889,2.55413 13.639603,2.15374 15.909092,-3.18181 2.269489,-5.33555 -1.135309,-5.89393 -0.117126,-10.22121 1.018183,-4.32728 7.880762,-11.79698 10.808033,-14.85152"
       id="path822"
       inkscape:connector-curvature="0"
       sodipodi:nodetypes="csszzzc" />
    <path
       style="fill:#ffffff;fill-rule:evenodd;stroke:#000000;stroke-width:2;stroke-linecap:butt;stroke-linejoin:round;stroke-miterlimit:4;stroke-dasharray:none;stroke-opacity:1"
       d="m 86.290907,132.08111 c -8.145454,-7.89091 -4.454545,-13.23637 -4.454545,-13.23637 0,0 7.000001,6.87273 11.581819,7.89091"
       id="path826"
       inkscape:connector-curvature="0"
       sodipodi:nodetypes="ccc" />
    <ellipse
       style="fill:#000000;fill-opacity:1;stroke:none;stroke-width:15.30501652;stroke-linecap:round;stroke-linejoin:round;stroke-miterlimit:4;stroke-dasharray:none;stroke-dashoffset:0;stroke-opacity:1"
       id="path828"
       cx="144.95078"
       cy="116.80734"
       rx="4.5075464"
       ry="2.0847163"
       transform="matrix(0.9731683,0.23009447,-0.22507129,0.9743423,0,0)" />
    <path
       style="fill:none;fill-rule:evenodd;stroke:#000000;stroke-width:2;stroke-linecap:butt;stroke-linejoin:miter;stroke-miterlimit:4;stroke-dasharray:none;stroke-opacity:1"
       d="m 107.61251,141.72186 c 0,0 2.80001,2.54545 7.00001,3.81818 4.2,1.27272 8.4,1.14545 8.4,1.14545"
       id="path830"
       inkscape:connector-curvature="0" />
    <path
       style="fill:#000000;fill-rule:evenodd;stroke:none;stroke-width:0.26458332px;stroke-linecap:butt;stroke-linejoin:miter;stroke-opacity:1"
       d="m 129.10194,162.63187 -6.22092,-7.75086 c 0,0 3.23983,-2.60987 7.19963,-2.24989 3.95979,0.35999 5.17538,1.97801 4.67976,5.30973 -0.24781,1.66586 -1.21626,3.77557 -2.59423,4.52905 -1.37798,0.75348 -3.06424,0.16197 -3.06424,0.16197 z"
       id="path832"
       inkscape:connector-curvature="0"
       sodipodi:nodetypes="cczssc" />
    <path
       style="fill:none;fill-rule:evenodd;stroke:#000000;stroke-width:2;stroke-linecap:butt;stroke-linejoin:miter;stroke-miterlimit:4;stroke-dasharray:none;stroke-opacity:1"
       d="m 128.67273,166.95383 c -6.87273,-1.90909 -12.98182,1.14546 -12.98182,1.14546"
       id="path834"
       inkscape:connector-curvature="0" />
  </g>
  <g
     inkscape:groupmode="layer"
     id="layer3"
     inkscape:label="Wolf"
     style="display:inline">
    <path
       style="fill:#ffffff;fill-rule:evenodd;stroke:#000000;stroke-width:2;stroke-linecap:butt;stroke-linejoin:miter;stroke-miterlimit:4;stroke-dasharray:none;stroke-opacity:1"
       d="m 189.12736,115.77631 c 10.44339,-1.14623 18.20321,-4.78024 22.66981,-9.04247 4.4666,-4.26224 11.84434,-13.62739 11.46225,-21.778333 L 205.04717,67.125317 176.13464,96.62022 Z"
       id="path841"
       inkscape:connector-curvature="0"
       sodipodi:nodetypes="czcccc" />
    <path
       style="fill:#ffffff;fill-rule:evenodd;stroke:#000000;stroke-width:2;stroke-linecap:butt;stroke-linejoin:miter;stroke-miterlimit:4;stroke-dasharray:none;stroke-opacity:1"
       d="m 194.42389,104.5694 c 2.97477,0.55338 5.37793,4.31819 5.81847,7.38461 0.44055,3.06643 -1.32917,9.97306 -1.32917,9.97306 0,0 7.8555,-5.02125 9.83674,-4.66102 1.98124,0.36023 3.78235,15.12941 3.78235,15.12941 0,0 5.08132,-5.92273 6.9446,-5.16392 1.86327,0.75881 0.0798,4.44347 -1.36113,7.8656 -1.4409,3.42213 -3.98439,7.89788 -6.92791,8.7818 -2.94352,0.88392 -4.73567,-1.73557 -5.45612,-4.07703 -0.72045,-2.34146 -1.84482,-7.76667 -1.84482,-7.76667 0,0 -10.37188,11.33051 -17.1144,13.99225 -6.74251,2.66173 -10.56106,1.47553 -16.2538,-2.55248 -5.69273,-4.02802 -7.33714,-10.16618 -7.51725,-18.82436 -0.18011,-8.65818 4.68292,-28.637871 11.16695,-38.0037 6.48404,-9.36583 19.81233,-20.352668 28.81794,-23.414575 9.00561,-3.061906 24.13502,-5.043137 24.13502,-5.043137 0,0 14.9493,11.887396 15.12942,20.172554 0.18011,8.285158 -1.80112,14.228855 -1.80112,14.228855 0,0 11.35081,8.161553 13.87238,11.223473 2.52157,3.06192 7.20073,8.94912 5.39961,11.4707 -1.80112,2.52158 -4.39355,-0.97891 -8.1759,-3.14027 -3.78235,-2.16135 0.59915,-2.56797 -3.46818,-5.86911 -4.06733,-3.30115 -18.47283,-5.59564 -23.31282,-7.894061 -4.83999,-2.298414 -7.23477,-3.317754 -9.03169,-8.544154"
       id="path839"
       inkscape:connector-curvature="0"
       sodipodi:nodetypes="czczczszzczzzssczcszzzzc" />
    <path
       style="fill:#ffffff;fill-rule:evenodd;stroke:none;stroke-width:0.26458332px;stroke-linecap:butt;stroke-linejoin:miter;stroke-opacity:1"
       d="m 171.74144,140.58332 -4.01094,3.05729 -4.26338,-14.30477 1.23413,-3.30973 z"
       id="path845"
       inkscape:connector-curvature="0"
       sodipodi:nodetypes="ccccc" />
    <path
       style="fill:#ffffff;fill-rule:evenodd;stroke:#000000;stroke-width:1.5;stroke-linecap:round;stroke-linejoin:round;stroke-miterlimit:4;stroke-dasharray:none;stroke-opacity:1"
       d="m 163.39695,127.75387 c 0,0 -1.65167,10.94696 -1.39695,18.58847 0.25471,7.64151 1.65566,22.03302 2.54717,25.59906 0.89151,-1.91038 1.40094,-3.6934 1.40094,-3.6934 l 1.80076,13.32107 1.86201,-4.20603 1.81365,11.13496 1.27358,-7.25943 4.58491,10.69811 -3.31132,-17.06604 3.0437,1.39939 -5.75371,-11.06254 3.47416,2.91315 c 0,0 -3.94812,-6.94102 -4.71227,-11.908 -0.76415,-4.96698 -0.29564,-13.66527 -0.29564,-13.66527"
       id="path843"
       inkscape:connector-curvature="0"
       sodipodi:nodetypes="cccccccccccccsc" />
    <path
       style="fill:#ffffff;fill-rule:evenodd;stroke:#000000;stroke-width:2;stroke-linecap:butt;stroke-linejoin:miter;stroke-miterlimit:4;stroke-dasharray:none;stroke-opacity:1"
       d="m 234.15625,37.094797 c 9.32609,-2.541271 14.94895,0.79375 18.65312,3.96875 3.70417,3.175 4.76251,10.980207 3.57188,16.668749 -1.19063,5.688542 -5.95312,7.14375 -6.48229,12.567709 -0.52917,5.423959 -1.32293,8.731249 -4.36563,10.186458 -3.04271,1.455208 -6.08542,-2.910416 -8.59896,-7.011458 -2.51354,-4.101042 -5.55625,-3.704167 -9.525,-7.011458 -3.96875,-3.307292 -8.92346,-9.715023 -7.54062,-16.139584 1.38284,-6.42456 4.9614,-10.687895 14.2875,-13.229166 z"
       id="path847"
       inkscape:connector-curvature="0"
       sodipodi:nodetypes="zzzzzzzzz" />
    <path
       style="fill:none;fill-rule:evenodd;stroke:#000000;stroke-width:1;stroke-linecap:butt;stroke-linejoin:miter;stroke-miterlimit:4;stroke-dasharray:none;stroke-opacity:1"
       d="m 227.54166,55.086463 c 5.02709,-1.455208 7.27605,-0.661458 8.86355,2.116667 1.5875,2.778125 3.96875,11.641666 3.96875,11.641666 l 5.82083,-1.190625 c 0,0 -1.12448,-6.283854 -0.46302,-11.178645 0.66146,-4.894792 2.84427,-5.88698 5.09323,-6.945313"
       id="path849"
       inkscape:connector-curvature="0"
       sodipodi:nodetypes="csccsc" />
    <ellipse
       style="fill:#000000;fill-opacity:1;stroke:none;stroke-width:0.87335712;stroke-linecap:round;stroke-linejoin:round;stroke-miterlimit:4;stroke-dasharray:none;stroke-dashoffset:0;stroke-opacity:1"
       id="path851"
       cx="216.0887"
       cy="120.96069"
       rx="3.9520707"
       ry="2.2698298"
       transform="matrix(0.97471542,-0.22344989,0.27000025,0.96286025,0,0)" />
    <ellipse
       style="fill:#000000;fill-opacity:1;stroke:none;stroke-width:1;stroke-linecap:round;stroke-linejoin:round;stroke-miterlimit:4;stroke-dasharray:none;stroke-dashoffset:0;stroke-opacity:1"
       id="path853"
       cx="202.49643"
       cy="153.99275"
       rx="1.5213542"
       ry="1.2567708"
       transform="rotate(-25.325498)" />
    <ellipse
       style="fill:#000000;fill-opacity:1;stroke:none;stroke-width:1;stroke-linecap:round;stroke-linejoin:round;stroke-miterlimit:4;stroke-dasharray:none;stroke-dashoffset:0;stroke-opacity:1"
       id="path853-3"
       cx="238.60611"
       cy="-9.2822151"
       rx="1.5213542"
       ry="1.2567708"
       transform="rotate(15.745178)" />
    <path
       style="fill:none;fill-rule:evenodd;stroke:#000000;stroke-width:1.5;stroke-linecap:butt;stroke-linejoin:miter;stroke-miterlimit:4;stroke-dasharray:none;stroke-opacity:1"
       d="m 239.68219,77.22183 c 0,0 0.42635,-4.720864 3.92888,-5.270833 3.64498,-0.572335 5.31028,3.628555 5.31028,3.628555"
       id="path870"
       inkscape:connector-curvature="0"
       sodipodi:nodetypes="csc" />
    <path
       style="fill:none;fill-rule:evenodd;stroke:#000000;stroke-width:1;stroke-linecap:butt;stroke-linejoin:miter;stroke-miterlimit:4;stroke-dasharray:none;stroke-opacity:1"
       d="m 241.09495,78.734701 0.88524,-0.974238 -0.0823,1.638679"
       id="path872"
       inkscape:connector-curvature="0"
       sodipodi:nodetypes="ccc" />
    <path
       style="fill:none;fill-rule:evenodd;stroke:#000000;stroke-width:1;stroke-linecap:butt;stroke-linejoin:miter;stroke-miterlimit:4;stroke-dasharray:none;stroke-opacity:1"
       d="m 247.74154,78.562258 -0.69194,-1.698479 1.00946,0.550919"
       id="path874"
       inkscape:connector-curvature="0"
       sodipodi:nodetypes="ccc" />
    <path
       style="fill:#ffffff;fill-rule:evenodd;stroke:#000000;stroke-width:2;stroke-linecap:butt;stroke-linejoin:miter;stroke-miterlimit:4;stroke-dasharray:none;stroke-opacity:1"
       d="m 222.09017,52.001722 c -5.98109,-1.974887 -7.50457,-10.132646 -7.50457,-10.132646 0,0 7.62826,3.241285 10.1674,2.959157"
       id="path4580"
       inkscape:connector-curvature="0"
       sodipodi:nodetypes="ccc" />
    <path
       style="fill:#ffffff;fill-rule:evenodd;stroke:#000000;stroke-width:2;stroke-linecap:butt;stroke-linejoin:miter;stroke-miterlimit:4;stroke-dasharray:none;stroke-opacity:1"
       d="m 254.04859,45.212377 c 3.49837,-4.683305 2.5511,-9.78028 2.5511,-9.78028 0,0 -5.29427,4.743097 -6.53563,5.250925"
       id="path4582"
       inkscape:connector-curvature="0"
       sodipodi:nodetypes="ccc" />
  </g>
  <g
     inkscape:groupmode="layer"
     id="layer4"
     inkscape:label="Sheep1"
     style="display:inline">
    <ellipse
       style="fill:#000000;fill-opacity:1;stroke:none;stroke-width:1.5;stroke-linecap:round;stroke-linejoin:round;stroke-miterlimit:4;stroke-dasharray:none;stroke-dashoffset:0;stroke-opacity:1"
       id="path4615"
       cx="163.27359"
       cy="112.84681"
       rx="7.6415095"
       ry="6.4952826" />
    <ellipse
       style="fill:#000000;fill-opacity:1;stroke:none;stroke-width:1.19176972;stroke-linecap:round;stroke-linejoin:round;stroke-miterlimit:4;stroke-dasharray:none;stroke-dashoffset:0;stroke-opacity:1"
       id="path4617"
       cx="-26.883427"
       cy="197.3015"
       rx="7.0633073"
       ry="5.1287045"
       transform="matrix(0.55711695,-0.83043404,0.9107654,0.41292418,0,0)" />
    <ellipse
       style="fill:#000000;fill-opacity:1;stroke:none;stroke-width:1.410761;stroke-linecap:round;stroke-linejoin:round;stroke-miterlimit:4;stroke-dasharray:none;stroke-dashoffset:0;stroke-opacity:1"
       id="path4619"
       cx="168.29974"
       cy="94.621948"
       rx="5.5201173"
       ry="6.8773584" />
    <ellipse
       style="fill:#000000;fill-opacity:1;stroke:none;stroke-width:1.5;stroke-linecap:round;stroke-linejoin:round;stroke-miterlimit:4;stroke-dasharray:none;stroke-dashoffset:0;stroke-opacity:1"
       id="path4621"
       cx="75.603004"
       cy="177.57082"
       rx="7.6415095"
       ry="5.8584905"
       transform="rotate(-40.895157)" />
    <ellipse
       style="fill:#000000;fill-opacity:1;stroke:none;stroke-width:1.5;stroke-linecap:round;stroke-linejoin:round;stroke-miterlimit:4;stroke-dasharray:none;stroke-dashoffset:0;stroke-opacity:1"
       id="path4623"
       cx="150.6937"
       cy="125.48363"
       rx="6.3679247"
       ry="4.9669809"
       transform="rotate(-16.847638)" />
    <ellipse
       style="fill:#000000;fill-opacity:1;stroke:none;stroke-width:1.5;stroke-linecap:round;stroke-linejoin:round;stroke-miterlimit:4;stroke-dasharray:none;stroke-dashoffset:0;stroke-opacity:1"
       id="path4625"
       cx="170.80594"
       cy="103.44031"
       rx="7.5141506"
       ry="4.9669809"
       transform="rotate(-10.739504)" />
    <ellipse
       style="fill:#000000;fill-opacity:1;stroke:none;stroke-width:1.5;stroke-linecap:round;stroke-linejoin:round;stroke-miterlimit:4;stroke-dasharray:none;stroke-dashoffset:0;stroke-opacity:1"
       id="path4627"
       cx="181.72383"
       cy="91.96563"
       rx="5.2216978"
       ry="4.2028298"
       transform="rotate(-8.3945089)" />
    <ellipse
       style="fill:#000000;fill-opacity:1;stroke:none;stroke-width:1.5;stroke-linecap:round;stroke-linejoin:round;stroke-miterlimit:4;stroke-dasharray:none;stroke-dashoffset:0;stroke-opacity:1"
       id="path4629"
       cx="200.46219"
       cy="60.120434"
       rx="6.2405658"
       ry="4.7122641" />
    <ellipse
       style="fill:#000000;fill-opacity:1;stroke:none;stroke-width:1.5;stroke-linecap:round;stroke-linejoin:round;stroke-miterlimit:4;stroke-dasharray:none;stroke-dashoffset:0;stroke-opacity:1"
       id="path4635"
       cx="207.82721"
       cy="57.402374"
       rx="5.7311316"
       ry="4.5849056" />
    <ellipse
       style="fill:#000000;fill-opacity:1;stroke:none;stroke-width:1.40936267;stroke-linecap:round;stroke-linejoin:round;stroke-miterlimit:4;stroke-dasharray:none;stroke-dashoffset:0;stroke-opacity:1"
       id="path4637"
       cx="23.204681"
       cy="219.18582"
       rx="4.58215"
       ry="5.6249924"
       transform="matrix(0.44635294,-0.894857,0.93315118,0.35948417,0,0)" />
    <ellipse
       style="fill:#000000;fill-opacity:1;stroke:none;stroke-width:1.5;stroke-linecap:round;stroke-linejoin:round;stroke-miterlimit:4;stroke-dasharray:none;stroke-dashoffset:0;stroke-opacity:1"
       id="path4639"
       cx="178.73907"
       cy="-149.07657"
       rx="4.0754719"
       ry="3.3113208"
       transform="rotate(56.958223)" />
    <ellipse
       style="fill:#000000;fill-opacity:1;stroke:none;stroke-width:1.5;stroke-linecap:round;stroke-linejoin:round;stroke-miterlimit:4;stroke-dasharray:none;stroke-dashoffset:0;stroke-opacity:1"
       id="path4641"
       cx="122.98196"
       cy="-200.96657"
       rx="4.8396225"
       ry="3.1839623"
       transform="rotate(77.265814)" />
    <ellipse
       style="fill:#000000;fill-opacity:1;stroke:none;stroke-width:1.5;stroke-linecap:round;stroke-linejoin:round;stroke-miterlimit:4;stroke-dasharray:none;stroke-dashoffset:0;stroke-opacity:1"
       id="path4643"
       cx="234.76971"
       cy="43.72168"
       rx="3.5660377"
       ry="4.0754719"
       transform="rotate(9.3011137)" />
    <circle
       style="fill:#000000;fill-opacity:1;stroke:none;stroke-width:1.5;stroke-linecap:round;stroke-linejoin:round;stroke-miterlimit:4;stroke-dasharray:none;stroke-dashoffset:0;stroke-opacity:1"
       id="path4645"
       cx="241.65115"
       cy="10.17973"
       r="3.5660377"
       transform="rotate(18.668101)" />
    <ellipse
       style="fill:#000000;fill-opacity:1;stroke:none;stroke-width:1.5;stroke-linecap:round;stroke-linejoin:round;stroke-miterlimit:4;stroke-dasharray:none;stroke-dashoffset:0;stroke-opacity:1"
       id="path4647"
       cx="134.81621"
       cy="202.55804"
       rx="4.0754719"
       ry="2.1650944"
       transform="rotate(-34.101702)" />
    <ellipse
       style="fill:#000000;fill-opacity:1;stroke:none;stroke-width:1.5;stroke-linecap:round;stroke-linejoin:round;stroke-miterlimit:4;stroke-dasharray:none;stroke-dashoffset:0;stroke-opacity:1"
       id="path4649"
       cx="219.43228"
       cy="93.031853"
       rx="4.3301888"
       ry="3.0566037" />
    <ellipse
       style="fill:#000000;fill-opacity:1;stroke:none;stroke-width:1.5;stroke-linecap:round;stroke-linejoin:round;stroke-miterlimit:4;stroke-dasharray:none;stroke-dashoffset:0;stroke-opacity:1"
       id="path4651"
       cx="229.75131"
       cy="25.424967"
       rx="5.9858489"
       ry="3.3113208"
       transform="rotate(16.42311)" />
    <ellipse
       style="fill:#000000;fill-opacity:1;stroke:none;stroke-width:1.5;stroke-linecap:round;stroke-linejoin:round;stroke-miterlimit:4;stroke-dasharray:none;stroke-dashoffset:0;stroke-opacity:1"
       id="path4657"
       cx="145.713"
       cy="172.38531"
       rx="4.4575467"
       ry="3.5660377"
       transform="rotate(-25.786129)" />
    <ellipse
       style="fill:#000000;fill-opacity:1;stroke:none;stroke-width:1.5;stroke-linecap:round;stroke-linejoin:round;stroke-miterlimit:4;stroke-dasharray:none;stroke-dashoffset:0;stroke-opacity:1"
       id="path4659"
       cx="157.62892"
       cy="158.09132"
       rx="3.6933961"
       ry="3.0566037"
       transform="rotate(-19.496611)" />
    <ellipse
       style="fill:#000000;fill-opacity:1;stroke:none;stroke-width:1.5;stroke-linecap:round;stroke-linejoin:round;stroke-miterlimit:4;stroke-dasharray:none;stroke-dashoffset:0;stroke-opacity:1"
       id="path4661"
       cx="151.05878"
       cy="158.05775"
       rx="5.8584905"
       ry="3.5660377"
       transform="rotate(-19.432361)" />
    <ellipse
       style="fill:#000000;fill-opacity:1;stroke:none;stroke-width:1.5;stroke-linecap:round;stroke-linejoin:round;stroke-miterlimit:4;stroke-dasharray:none;stroke-dashoffset:0;stroke-opacity:1"
       id="path4663"
       cx="215.28311"
       cy="-31.778814"
       rx="5.0943394"
       ry="4.2028298"
       transform="rotate(37.126763)" />
    <ellipse
       style="fill:#000000;fill-opacity:1;stroke:none;stroke-width:1.5;stroke-linecap:round;stroke-linejoin:round;stroke-miterlimit:4;stroke-dasharray:none;stroke-dashoffset:0;stroke-opacity:1"
       id="path4665"
       cx="190.46645"
       cy="110.78743"
       rx="4.8396225"
       ry="3.3113208" />
    <ellipse
       style="fill:#000000;fill-opacity:1;stroke:none;stroke-width:1.24665308;stroke-linecap:round;stroke-linejoin:round;stroke-miterlimit:4;stroke-dasharray:none;stroke-dashoffset:0;stroke-opacity:1"
       id="path4667"
       cx="222.82123"
       cy="1.4705564"
       rx="3.9906201"
       ry="2.9479051"
       transform="matrix(0.85851548,0.51278764,-0.29960092,0.95406461,0,0)" />
    <ellipse
       style="fill:#000000;fill-opacity:1;stroke:none;stroke-width:1.5;stroke-linecap:round;stroke-linejoin:round;stroke-miterlimit:4;stroke-dasharray:none;stroke-dashoffset:0;stroke-opacity:1"
       id="path4669"
       cx="188.80444"
       cy="120.68145"
       rx="4.8396225"
       ry="3.9481132" />
    <ellipse
       style="fill:#000000;fill-opacity:1;stroke:none;stroke-width:1.5;stroke-linecap:round;stroke-linejoin:round;stroke-miterlimit:4;stroke-dasharray:none;stroke-dashoffset:0;stroke-opacity:1"
       id="path4671"
       cx="181.79332"
       cy="121.61288"
       rx="4.3301888"
       ry="3.6933961" />
    <ellipse
       style="fill:#000000;fill-opacity:1;stroke:none;stroke-width:1.5;stroke-linecap:round;stroke-linejoin:round;stroke-miterlimit:4;stroke-dasharray:none;stroke-dashoffset:0;stroke-opacity:1"
       id="path4673"
       cx="175.24493"
       cy="117.81422"
       rx="4.5849056"
       ry="3.1839623" />
    <ellipse
       style="fill:#000000;fill-opacity:1;stroke:none;stroke-width:1.5;stroke-linecap:round;stroke-linejoin:round;stroke-miterlimit:4;stroke-dasharray:none;stroke-dashoffset:0;stroke-opacity:1"
       id="path4675"
       cx="170.15096"
       cy="114.37529"
       rx="4.3301888"
       ry="3.6933961" />
    <ellipse
       style="fill:#000000;fill-opacity:1;stroke:none;stroke-width:1.5;stroke-linecap:round;stroke-linejoin:round;stroke-miterlimit:4;stroke-dasharray:none;stroke-dashoffset:0;stroke-opacity:1"
       id="path4756"
       cx="132.28513"
       cy="186.70044"
       rx="3.602242"
       ry="5.1331949"
       transform="rotate(-38.568098)" />
  </g>
  <g
     inkscape:groupmode="layer"
     id="layer5"
     inkscape:label="Sheep2"
     style="display:inline">
    <ellipse
       style="fill:#ffffff;fill-opacity:1;stroke:none;stroke-width:1.76128495;stroke-linecap:round;stroke-linejoin:round;stroke-miterlimit:4;stroke-dasharray:none;stroke-dashoffset:0;stroke-opacity:1"
       id="path4678"
       cx="100.00848"
       cy="170.76628"
       rx="5.5271587"
       ry="3.3663089"
       transform="matrix(0.90773918,-0.41953496,0.43082676,0.90243465,0,0)" />
    <ellipse
       style="fill:#ffffff;fill-opacity:1;stroke:none;stroke-width:1.64386106;stroke-linecap:round;stroke-linejoin:round;stroke-miterlimit:4;stroke-dasharray:none;stroke-dashoffset:0;stroke-opacity:1"
       id="path4682"
       cx="134.19836"
       cy="160.27534"
       rx="5.4239788"
       ry="5.2975807"
       transform="matrix(0.92997286,-0.36762818,0.26709612,0.96366989,0,0)" />
    <ellipse
       style="fill:#ffffff;fill-opacity:1;stroke:none;stroke-width:1.54916072;stroke-linecap:round;stroke-linejoin:round;stroke-miterlimit:4;stroke-dasharray:none;stroke-dashoffset:0;stroke-opacity:1"
       id="path4684"
       cx="170.62804"
       cy="100.87435"
       rx="4.3225083"
       ry="4.6829147" />
    <ellipse
       style="fill:#ffffff;fill-opacity:1;stroke:none;stroke-width:1.84876299;stroke-linecap:round;stroke-linejoin:round;stroke-miterlimit:4;stroke-dasharray:none;stroke-dashoffset:0;stroke-opacity:1"
       id="path4686"
       cx="171.36226"
       cy="95.259422"
       rx="5.4931765"
       ry="5.9433055" />
    <ellipse
       style="fill:#ffffff;fill-opacity:1;stroke:none;stroke-width:1.64477098;stroke-linecap:round;stroke-linejoin:round;stroke-miterlimit:4;stroke-dasharray:none;stroke-dashoffset:0;stroke-opacity:1"
       id="path4688"
       cx="93.156784"
       cy="182.17307"
       rx="6.2178955"
       ry="5.1814437"
       transform="matrix(0.74643621,-0.66545697,0.5824458,0.81286954,0,0)" />
    <ellipse
       style="fill:#ffffff;fill-opacity:1;stroke:none;stroke-width:1.5;stroke-linecap:round;stroke-linejoin:round;stroke-miterlimit:4;stroke-dasharray:none;stroke-dashoffset:0;stroke-opacity:1"
       id="path4690"
       cx="121.47247"
       cy="157.4693"
       rx="6.0337553"
       ry="3.6922982"
       transform="rotate(-29.23297)" />
    <ellipse
       style="fill:#ffffff;fill-opacity:1;stroke:none;stroke-width:1.66145194;stroke-linecap:round;stroke-linejoin:round;stroke-miterlimit:4;stroke-dasharray:none;stroke-dashoffset:0;stroke-opacity:1"
       id="path4692"
       cx="188.59897"
       cy="72.264389"
       rx="5.393712"
       ry="4.5195708" />
    <ellipse
       style="fill:#ffffff;fill-opacity:1;stroke:none;stroke-width:1.62636173;stroke-linecap:round;stroke-linejoin:round;stroke-miterlimit:4;stroke-dasharray:none;stroke-dashoffset:0;stroke-opacity:1"
       id="path4694"
       cx="122.38147"
       cy="172.01712"
       rx="4.6040449"
       ry="4.0877585"
       transform="matrix(0.79599865,-0.6052984,0.56259859,0.8267302,0,0)" />
    <ellipse
       style="fill:#ffffff;fill-opacity:1;stroke:none;stroke-width:1.90360129;stroke-linecap:round;stroke-linejoin:round;stroke-miterlimit:4;stroke-dasharray:none;stroke-dashoffset:0;stroke-opacity:1"
       id="path4696"
       cx="201.53763"
       cy="63.571011"
       rx="5.448391"
       ry="4.1425781" />
    <ellipse
       style="fill:#ffffff;fill-opacity:1;stroke:none;stroke-width:1.54659534;stroke-linecap:round;stroke-linejoin:round;stroke-miterlimit:4;stroke-dasharray:none;stroke-dashoffset:0;stroke-opacity:1"
       id="path4714"
       cx="207.7113"
       cy="60.800869"
       rx="5.361321"
       ry="4.5928583" />
    <ellipse
       style="fill:#ffffff;fill-opacity:1;stroke:none;stroke-width:1.5;stroke-linecap:round;stroke-linejoin:round;stroke-miterlimit:4;stroke-dasharray:none;stroke-dashoffset:0;stroke-opacity:1"
       id="path4716"
       cx="215.68425"
       cy="62.24176"
       rx="5.2232509"
       ry="4.4127464" />
    <ellipse
       style="fill:#ffffff;fill-opacity:1;stroke:none;stroke-width:1.5;stroke-linecap:round;stroke-linejoin:round;stroke-miterlimit:4;stroke-dasharray:none;stroke-dashoffset:0;stroke-opacity:1"
       id="path4718"
       cx="219.55666"
       cy="68.36557"
       rx="2.8817937"
       ry="3.5121858" />
    <ellipse
       style="fill:#ffffff;fill-opacity:1;stroke:none;stroke-width:1.5;stroke-linecap:round;stroke-linejoin:round;stroke-miterlimit:4;stroke-dasharray:none;stroke-dashoffset:0;stroke-opacity:1"
       id="path4720"
       cx="218.21034"
       cy="73.821686"
       rx="3.3320739"
       ry="4.2326345" />
    <ellipse
       style="fill:#ffffff;fill-opacity:1;stroke:none;stroke-width:1.5;stroke-linecap:round;stroke-linejoin:round;stroke-miterlimit:4;stroke-dasharray:none;stroke-dashoffset:0;stroke-opacity:1"
       id="path4722"
       cx="221.98755"
       cy="-71.831886"
       rx="3.5121858"
       ry="4.1425781"
       transform="rotate(37.281912)" />
    <ellipse
       style="fill:#ffffff;fill-opacity:1;stroke:none;stroke-width:1.5;stroke-linecap:round;stroke-linejoin:round;stroke-miterlimit:4;stroke-dasharray:none;stroke-dashoffset:0;stroke-opacity:1"
       id="path4724"
       cx="199.81195"
       cy="127.11061"
       rx="3.0619059"
       ry="5.1331949"
       transform="rotate(-12.00955)" />
    <ellipse
       style="fill:#ffffff;fill-opacity:1;stroke:none;stroke-width:1.5;stroke-linecap:round;stroke-linejoin:round;stroke-miterlimit:4;stroke-dasharray:none;stroke-dashoffset:0;stroke-opacity:1"
       id="path4726"
       cx="220.70554"
       cy="88.441673"
       rx="5.043139"
       ry="3.6922982" />
    <ellipse
       style="fill:#ffffff;fill-opacity:1;stroke:none;stroke-width:1.76504517;stroke-linecap:round;stroke-linejoin:round;stroke-miterlimit:4;stroke-dasharray:none;stroke-dashoffset:0;stroke-opacity:1"
       id="path4728"
       cx="213.07262"
       cy="86.752457"
       rx="4.1425781"
       ry="3.242018" />
    <ellipse
       style="fill:#ffffff;fill-opacity:1;stroke:none;stroke-width:1.5;stroke-linecap:round;stroke-linejoin:round;stroke-miterlimit:4;stroke-dasharray:none;stroke-dashoffset:0;stroke-opacity:1"
       id="path4730"
       cx="176.18393"
       cy="138.27757"
       rx="4.1425781"
       ry="2.7917376"
       transform="rotate(-15.067942)" />
    <ellipse
       style="fill:#ffffff;fill-opacity:1;stroke:none;stroke-width:1.5;stroke-linecap:round;stroke-linejoin:round;stroke-miterlimit:4;stroke-dasharray:none;stroke-dashoffset:0;stroke-opacity:1"
       id="path4732"
       cx="201.08398"
       cy="89.979027"
       rx="4.2326345"
       ry="3.6922982" />
    <ellipse
       style="fill:#ffffff;fill-opacity:1;stroke:none;stroke-width:1.5;stroke-linecap:round;stroke-linejoin:round;stroke-miterlimit:4;stroke-dasharray:none;stroke-dashoffset:0;stroke-opacity:1"
       id="path4734"
       cx="153.02736"
       cy="156.21414"
       rx="4.6829147"
       ry="3.3320739"
       transform="rotate(-20.100029)" />
    <ellipse
       style="fill:#ffffff;fill-opacity:1;stroke:none;stroke-width:1.5;stroke-linecap:round;stroke-linejoin:round;stroke-miterlimit:4;stroke-dasharray:none;stroke-dashoffset:0;stroke-opacity:1"
       id="path4736"
       cx="191.70699"
       cy="96.271782"
       rx="4.4127464"
       ry="4.0525222" />
    <ellipse
       style="fill:#ffffff;fill-opacity:1;stroke:none;stroke-width:1.5;stroke-linecap:round;stroke-linejoin:round;stroke-miterlimit:4;stroke-dasharray:none;stroke-dashoffset:0;stroke-opacity:1"
       id="path4738"
       cx="59.746033"
       cy="203.52336"
       rx="4.5928583"
       ry="3.2420177"
       transform="rotate(-45.298195)" />
    <ellipse
       style="fill:#ffffff;fill-opacity:1;stroke:none;stroke-width:1.5;stroke-linecap:round;stroke-linejoin:round;stroke-miterlimit:4;stroke-dasharray:none;stroke-dashoffset:0;stroke-opacity:1"
       id="path4740"
       cx="206.24503"
       cy="57.751408"
       rx="5.3133073"
       ry="3.1519618"
       transform="rotate(13.664176)" />
    <ellipse
       style="fill:#ffffff;fill-opacity:1;stroke:none;stroke-width:1.5;stroke-linecap:round;stroke-linejoin:round;stroke-miterlimit:4;stroke-dasharray:none;stroke-dashoffset:0;stroke-opacity:1"
       id="path4742"
       cx="187.22653"
       cy="110.96207"
       rx="4.5028028"
       ry="4.1425781" />
    <ellipse
       style="fill:#ffffff;fill-opacity:1;stroke:none;stroke-width:1.37950611;stroke-linecap:round;stroke-linejoin:round;stroke-miterlimit:4;stroke-dasharray:none;stroke-dashoffset:0;stroke-opacity:1"
       id="path4744"
       cx="220.09871"
       cy="-1.0833396"
       rx="4.5691996"
       ry="3.6750379"
       transform="matrix(0.84412004,0.53615422,-0.58835148,0.80860531,0,0)" />
    <ellipse
       style="fill:#ffffff;fill-opacity:1;stroke:none;stroke-width:1.41258276;stroke-linecap:round;stroke-linejoin:round;stroke-miterlimit:4;stroke-dasharray:none;stroke-dashoffset:0;stroke-opacity:1"
       id="path4750"
       cx="136.57582"
       cy="199.59807"
       rx="3.9673181"
       ry="3.6983175"
       transform="matrix(0.85414566,-0.52003384,0.33353202,0.94273877,0,0)" />
    <ellipse
       style="fill:#ffffff;fill-opacity:1;stroke:none;stroke-width:1.62538981;stroke-linecap:round;stroke-linejoin:round;stroke-miterlimit:4;stroke-dasharray:none;stroke-dashoffset:0;stroke-opacity:1"
       id="path4752"
       cx="206.25516"
       cy="66.608223"
       rx="5.3107991"
       ry="3.3835325"
       transform="matrix(0.96787179,0.25144422,-0.33491655,0.94224779,0,0)" />
    <ellipse
       style="fill:#ffffff;fill-opacity:1;stroke:none;stroke-width:1.5;stroke-linecap:round;stroke-linejoin:round;stroke-miterlimit:4;stroke-dasharray:none;stroke-dashoffset:0;stroke-opacity:1"
       id="path4754"
       cx="172.00705"
       cy="111.41235"
       rx="4.2326345"
       ry="3.6922982" />
  </g>
</svg>
