<svg version="1.1" viewBox="0.0 0.0 1280.0 960.0" fill="none" stroke="none" stroke-linecap="square" stroke-miterlimit="10" xmlns:xlink="http://www.w3.org/1999/xlink" xmlns="http://www.w3.org/2000/svg">
    <clipPath id="p.0">
        <path d="m0 0l1280.0 0l0 960.0l-1280.0 0l0 -960.0z" clip-rule="nonzero"/>
    </clipPath>
    <g clip-path="url(#p.0)">
        <path fill="#000000" fill-opacity="0.0" d="m0 0l1280.0 0l0 960.0l-1280.0 0z" fill-rule="evenodd"/>
        <path fill="#f4cccc" d="m232.11023 113.00525l0 0c0 -24.744095 20.059067 -44.803146 44.80316 -44.803146l0 0c11.882538 0 23.278381 4.720314 31.680603 13.122536c8.402222 8.402222 13.122528 19.79808 13.122528 31.68061l0 0c0 24.744095 -20.059052 44.803146 -44.80313 44.803146l0 0c-24.744095 0 -44.80316 -20.059052 -44.80316 -44.803146z" fill-rule="evenodd"/>
        <path stroke="#000000" stroke-width="2.0" stroke-linejoin="round" stroke-linecap="butt" d="m232.11023 113.00525l0 0c0 -24.744095 20.059067 -44.803146 44.80316 -44.803146l0 0c11.882538 0 23.278381 4.720314 31.680603 13.122536c8.402222 8.402222 13.122528 19.79808 13.122528 31.68061l0 0c0 24.744095 -20.059052 44.803146 -44.80313 44.803146l0 0c-24.744095 0 -44.80316 -20.059052 -44.80316 -44.803146z" fill-rule="evenodd"/>
        <path fill="#000000" d="m267.51105 114.162125q0 2.359375 -0.984375 3.609375q-0.96875 1.25 -2.859375 1.25q-1.859375 0 -2.84375 -1.21875q-0.984375 -1.234375 -1.0 -3.53125l0 -2.09375q0 -2.375 0.984375 -3.609375q0.984375 -1.234375 2.84375 -1.234375q1.859375 0 2.84375 1.21875q0.984375 1.21875 1.015625 3.515625l0 2.09375zm-2.265625 -2.296875q0 -1.421875 -0.390625 -2.0625q-0.375 -0.640625 -1.203125 -0.640625q-0.796875 0 -1.171875 0.609375q-0.375 0.609375 -0.40625 1.921875l0 2.765625q0 1.390625 0.375 2.0625q0.390625 0.671875 1.21875 0.671875q0.828125 0 1.1875 -0.640625q0.375 -0.65625 0.390625 -1.984375l0 -2.703125zm7.1015625 1.0625l1.421875 -2.515625l2.40625 0l-2.40625 4.140625l2.515625 4.3125l-2.421875 0l-1.515625 -2.65625l-1.5 2.65625l-2.421875 0l2.5 -4.3125l-2.390625 -4.140625l2.421875 0l1.390625 2.515625zm12.484375 1.234375q0 2.359375 -0.984375 3.609375q-0.96875 1.25 -2.859375 1.25q-1.859375 0 -2.84375 -1.21875q-0.984375 -1.234375 -1.0 -3.53125l0 -2.09375q0 -2.375 0.984375 -3.609375q0.984375 -1.234375 2.84375 -1.234375q1.859375 0 2.84375 1.21875q0.984375 1.21875 1.015625 3.515625l0 2.09375zm-2.265625 -2.296875q0 -1.421875 -0.390625 -2.0625q-0.375 -0.640625 -1.203125 -0.640625q-0.796875 0 -1.171875 0.609375q-0.375 0.609375 -0.40625 1.921875l0 2.765625q0 1.390625 0.375 2.0625q0.390625 0.671875 1.21875 0.671875q0.828125 0 1.1875 -0.640625q0.375 -0.65625 0.390625 -1.984375l0 -2.703125zm11.4453125 2.296875q0 2.359375 -0.984375 3.609375q-0.96875 1.25 -2.859375 1.25q-1.859375 0 -2.84375 -1.21875q-0.984375 -1.234375 -1.0 -3.53125l0 -2.09375q0 -2.375 0.984375 -3.609375q0.984375 -1.234375 2.84375 -1.234375q1.859375 0 2.84375 1.21875q0.984375 1.21875 1.015625 3.515625l0 2.09375zm-2.265625 -2.296875q0 -1.421875 -0.390625 -2.0625q-0.375 -0.640625 -1.203125 -0.640625q-0.796875 0 -1.171875 0.609375q-0.375 0.609375 -0.40625 1.921875l0 2.765625q0 1.390625 0.375 2.0625q0.390625 0.671875 1.21875 0.671875q0.828125 0 1.1875 -0.640625q0.375 -0.65625 0.390625 -1.984375l0 -2.703125z" fill-rule="nonzero"/>
        <path fill="#d9d9d9" d="m395.7257 113.00525l0 0c0 -24.744095 20.059082 -44.803146 44.80316 -44.803146l0 0c11.882538 0 23.278381 4.720314 31.680603 13.122536c8.402222 8.402222 13.122559 19.79808 13.122559 31.68061l0 0c0 24.744095 -20.059052 44.803146 -44.80316 44.803146l0 0c-24.74408 0 -44.80316 -20.059052 -44.80316 -44.803146z" fill-rule="evenodd"/>
        <path stroke="#000000" stroke-width="2.0" stroke-linejoin="round" stroke-linecap="butt" d="m395.7257 113.00525l0 0c0 -24.744095 20.059082 -44.803146 44.80316 -44.803146l0 0c11.882538 0 23.278381 4.720314 31.680603 13.122536c8.402222 8.402222 13.122559 19.79808 13.122559 31.68061l0 0c0 24.744095 -20.059052 44.803146 -44.80316 44.803146l0 0c-24.74408 0 -44.80316 -20.059052 -44.80316 -44.803146z" fill-rule="evenodd"/>
        <path fill="#000000" d="m427.13434 119.0215q-1.4375 -0.03125 -2.15625 -1.015625q-0.71875 -1.0 -0.65625 -2.859375q0.015625 -0.578125 0.09375 -1.140625l0.28125 -1.890625q0.375 -2.4375 1.421875 -3.625q1.0625 -1.203125 2.78125 -1.15625q1.453125 0.03125 2.171875 1.0q0.71875 0.953125 0.65625 2.796875q-0.015625 0.578125 -0.09375 1.140625l-0.265625 1.84375q-0.421875 2.5625 -1.46875 3.765625q-1.046875 1.1875 -2.765625 1.140625zm3.140625 -7.0q0.109375 -0.953125 0.09375 -1.46875q-0.03125 -1.984375 -1.53125 -2.046875q-1.09375 -0.03125 -1.78125 0.8125q-0.671875 0.84375 -0.9375 2.65625l-0.328125 2.265625q-0.109375 0.90625 -0.109375 1.484375q0.046875 2.0625 1.53125 2.125q1.046875 0.046875 1.71875 -0.765625q0.671875 -0.8125 0.96875 -2.578125l0.375 -2.484375zm5.84375 1.46875l2.296875 -3.078125l1.734375 0l-3.390625 4.25l2.0625 4.203125l-1.53125 0l-1.40625 -3.15625l-2.375 3.15625l-1.734375 0l3.5 -4.34375l-2.0 -4.109375l1.546875 0l1.296875 3.078125zm8.6171875 5.375l-1.421875 0l1.671875 -9.59375l-3.015625 1.0625l0.234375 -1.375l4.21875 -1.53125l0.25 0l-1.9375 11.4375zm7.765625 0.15625q-1.4375 -0.03125 -2.15625 -1.015625q-0.71875 -1.0 -0.65625 -2.859375q0.015625 -0.578125 0.09375 -1.140625l0.28125 -1.890625q0.375 -2.4375 1.421875 -3.625q1.0625 -1.203125 2.78125 -1.15625q1.453125 0.03125 2.171875 1.0q0.71875 0.953125 0.65625 2.796875q-0.015625 0.578125 -0.09375 1.140625l-0.265625 1.84375q-0.421875 2.5625 -1.46875 3.765625q-1.046875 1.1875 -2.765625 1.140625zm3.140625 -7.0q0.109375 -0.953125 0.09375 -1.46875q-0.03125 -1.984375 -1.53125 -2.046875q-1.09375 -0.03125 -1.78125 0.8125q-0.671875 0.84375 -0.9375 2.65625l-0.328125 2.265625q-0.109375 0.90625 -0.109375 1.484375q0.046875 2.0625 1.53125 2.125q1.046875 0.046875 1.71875 -0.765625q0.671875 -0.8125 0.96875 -2.578125l0.375 -2.484375z" fill-rule="nonzero"/>
        <path fill="#d9ead3" d="m232.11154 281.12686l0 0c0 -24.74411 20.059067 -44.803146 44.80316 -44.803146l0 0c11.882538 0 23.278381 4.7203064 31.680603 13.122528c8.402222 8.402237 13.122528 19.79808 13.122528 31.680618l0 0c0 24.74408 -20.059052 44.80316 -44.80313 44.80316l0 0c-24.744095 0 -44.80316 -20.059082 -44.80316 -44.80316z" fill-rule="evenodd"/>
        <path stroke="#000000" stroke-width="2.0" stroke-linejoin="round" stroke-linecap="butt" d="m232.11154 281.12686l0 0c0 -24.74411 20.059067 -44.803146 44.80316 -44.803146l0 0c11.882538 0 23.278381 4.7203064 31.680603 13.122528c8.402222 8.402237 13.122528 19.79808 13.122528 31.680618l0 0c0 24.74408 -20.059052 44.80316 -44.80313 44.80316l0 0c-24.744095 0 -44.80316 -20.059082 -44.80316 -44.80316z" fill-rule="evenodd"/>
        <path fill="#000000" d="m267.51236 282.28372q0 2.359375 -0.984375 3.609375q-0.96875 1.25 -2.859375 1.25q-1.859375 0 -2.84375 -1.21875q-0.984375 -1.234375 -1.0 -3.53125l0 -2.09375q0 -2.375 0.984375 -3.609375q0.984375 -1.234375 2.84375 -1.234375q1.859375 0 2.84375 1.21875q0.984375 1.21875 1.015625 3.515625l0 2.09375zm-2.265625 -2.296875q0 -1.421875 -0.390625 -2.0625q-0.375 -0.640625 -1.203125 -0.640625q-0.796875 0 -1.171875 0.609375q-0.375 0.609375 -0.40625 1.921875l0 2.765625q0 1.390625 0.375 2.0625q0.390625 0.671875 1.21875 0.671875q0.828125 0 1.1875 -0.640625q0.375 -0.65625 0.390625 -1.984375l0 -2.703125zm7.1015625 1.0625l1.421875 -2.515625l2.40625 0l-2.40625 4.140625l2.515625 4.3125l-2.421875 0l-1.515625 -2.65625l-1.5 2.65625l-2.421875 0l2.5 -4.3125l-2.390625 -4.140625l2.421875 0l1.390625 2.515625zm12.625 5.9375l-7.796875 0l0 -1.546875l3.671875 -3.921875q0.765625 -0.828125 1.125 -1.4375q0.359375 -0.625 0.359375 -1.1875q0 -0.75 -0.390625 -1.1875q-0.375 -0.4375 -1.078125 -0.4375q-0.765625 0 -1.21875 0.53125q-0.4375 0.53125 -0.4375 1.390625l-2.265625 0q0 -1.046875 0.5 -1.90625q0.5 -0.859375 1.40625 -1.34375q0.90625 -0.484375 2.046875 -0.484375q1.765625 0 2.734375 0.84375q0.96875 0.84375 0.96875 2.375q0 0.84375 -0.4375 1.71875q-0.4375 0.875 -1.5 2.046875l-2.578125 2.71875l4.890625 0l0 1.828125zm9.0390625 -4.703125q0 2.359375 -0.984375 3.609375q-0.96875 1.25 -2.859375 1.25q-1.859375 0 -2.84375 -1.21875q-0.984375 -1.234375 -1.0 -3.53125l0 -2.09375q0 -2.375 0.984375 -3.609375q0.984375 -1.234375 2.84375 -1.234375q1.859375 0 2.84375 1.21875q0.984375 1.21875 1.015625 3.515625l0 2.09375zm-2.265625 -2.296875q0 -1.421875 -0.390625 -2.0625q-0.375 -0.640625 -1.203125 -0.640625q-0.796875 0 -1.171875 0.609375q-0.375 0.609375 -0.40625 1.921875l0 2.765625q0 1.390625 0.375 2.0625q0.390625 0.671875 1.21875 0.671875q0.828125 0 1.1875 -0.640625q0.375 -0.65625 0.390625 -1.984375l0 -2.703125z" fill-rule="nonzero"/>
        <path fill="#d9d9d9" d="m395.72702 281.12686l0 0c0 -24.74411 20.059082 -44.803146 44.80316 -44.803146l0 0c11.882538 0 23.278381 4.7203064 31.680603 13.122528c8.402222 8.402237 13.122559 19.79808 13.122559 31.680618l0 0c0 24.74408 -20.059052 44.80316 -44.80316 44.80316l0 0c-24.74408 0 -44.80316 -20.059082 -44.80316 -44.80316z" fill-rule="evenodd"/>
        <path stroke="#000000" stroke-width="2.0" stroke-linejoin="round" stroke-linecap="butt" d="m395.72702 281.12686l0 0c0 -24.74411 20.059082 -44.803146 44.80316 -44.803146l0 0c11.882538 0 23.278381 4.7203064 31.680603 13.122528c8.402222 8.402237 13.122559 19.79808 13.122559 31.680618l0 0c0 24.74408 -20.059052 44.80316 -44.80316 44.80316l0 0c-24.74408 0 -44.80316 -20.059082 -44.80316 -44.80316z" fill-rule="evenodd"/>
        <path fill="#000000" d="m427.13565 287.1431q-1.4375 -0.03125 -2.15625 -1.015625q-0.71875 -1.0 -0.65625 -2.859375q0.015625 -0.578125 0.09375 -1.140625l0.28125 -1.890625q0.375 -2.4375 1.421875 -3.625q1.0625 -1.203125 2.78125 -1.15625q1.453125 0.03125 2.171875 1.0q0.71875 0.953125 0.65625 2.796875q-0.015625 0.578125 -0.09375 1.140625l-0.265625 1.84375q-0.421875 2.5625 -1.46875 3.765625q-1.046875 1.1875 -2.765625 1.140625zm3.140625 -7.0q0.109375 -0.953125 0.09375 -1.46875q-0.03125 -1.984375 -1.53125 -2.046875q-1.09375 -0.03125 -1.78125 0.8125q-0.671875 0.84375 -0.9375 2.65625l-0.328125 2.265625q-0.109375 0.90625 -0.109375 1.484375q0.046875 2.0625 1.53125 2.125q1.046875 0.046875 1.71875 -0.765625q0.671875 -0.8125 0.96875 -2.578125l0.375 -2.484375zm5.84375 1.46875l2.296875 -3.078125l1.734375 0l-3.390625 4.25l2.0625 4.203125l-1.53125 0l-1.40625 -3.15625l-2.375 3.15625l-1.734375 0l3.5 -4.34375l-2.0 -4.109375l1.546875 0l1.296875 3.078125zm7.1484375 -1.015625l0.9375 0q1.03125 0 1.734375 -0.53125q0.71875 -0.546875 0.8125 -1.484375q0.109375 -0.90625 -0.328125 -1.421875q-0.4375 -0.515625 -1.28125 -0.53125q-0.890625 -0.015625 -1.515625 0.515625q-0.609375 0.53125 -0.75 1.4375l-1.40625 0.015625q0.140625 -1.40625 1.203125 -2.28125q1.0625 -0.890625 2.546875 -0.875q1.421875 0.03125 2.234375 0.90625q0.828125 0.859375 0.71875 2.265625q-0.078125 0.8125 -0.625 1.484375q-0.546875 0.65625 -1.515625 1.09375q0.78125 0.3125 1.15625 0.984375q0.390625 0.671875 0.328125 1.578125q-0.125 1.546875 -1.234375 2.484375q-1.09375 0.9375 -2.65625 0.90625q-1.46875 -0.03125 -2.34375 -0.90625q-0.859375 -0.875 -0.796875 -2.265625l1.421875 0.015625q-0.046875 0.875 0.421875 1.40625q0.46875 0.53125 1.359375 0.5625q1.0 0.03125 1.65625 -0.5625q0.671875 -0.609375 0.765625 -1.609375q0.078125 -0.9375 -0.4375 -1.453125q-0.5 -0.515625 -1.5 -0.546875l-1.09375 -0.015625l0.1875 -1.171875zm9.234375 6.546875q-1.4375 -0.03125 -2.15625 -1.015625q-0.71875 -1.0 -0.65625 -2.859375q0.015625 -0.578125 0.09375 -1.140625l0.28125 -1.890625q0.375 -2.4375 1.421875 -3.625q1.0625 -1.203125 2.78125 -1.15625q1.453125 0.03125 2.171875 1.0q0.71875 0.953125 0.65625 2.796875q-0.015625 0.578125 -0.09375 1.140625l-0.265625 1.84375q-0.421875 2.5625 -1.46875 3.765625q-1.046875 1.1875 -2.765625 1.140625zm3.140625 -7.0q0.109375 -0.953125 0.09375 -1.46875q-0.03125 -1.984375 -1.53125 -2.046875q-1.09375 -0.03125 -1.78125 0.8125q-0.671875 0.84375 -0.9375 2.65625l-0.328125 2.265625q-0.109375 0.90625 -0.109375 1.484375q0.046875 2.0625 1.53125 2.125q1.046875 0.046875 1.71875 -0.765625q0.671875 -0.8125 0.96875 -2.578125l0.375 -2.484375z" fill-rule="nonzero"/>
        <path fill="#c9daf8" d="m232.11023 449.24847l0 0c0 -24.74411 20.059067 -44.80316 44.80316 -44.80316l0 0c11.882538 0 23.278381 4.720337 31.680603 13.122559c8.402222 8.402222 13.122528 19.798065 13.122528 31.680603l0 0c0 24.74408 -20.059052 44.80313 -44.80313 44.80313l0 0c-24.744095 0 -44.80316 -20.059052 -44.80316 -44.80313z" fill-rule="evenodd"/>
        <path stroke="#000000" stroke-width="2.0" stroke-linejoin="round" stroke-linecap="butt" d="m232.11023 449.24847l0 0c0 -24.74411 20.059067 -44.80316 44.80316 -44.80316l0 0c11.882538 0 23.278381 4.720337 31.680603 13.122559c8.402222 8.402222 13.122528 19.798065 13.122528 31.680603l0 0c0 24.74408 -20.059052 44.80313 -44.80313 44.80313l0 0c-24.744095 0 -44.80316 -20.059052 -44.80316 -44.80313z" fill-rule="evenodd"/>
        <path fill="#000000" d="m267.51105 450.40533q0 2.359375 -0.984375 3.609375q-0.96875 1.25 -2.859375 1.25q-1.859375 0 -2.84375 -1.21875q-0.984375 -1.234375 -1.0 -3.53125l0 -2.09375q0 -2.375 0.984375 -3.609375q0.984375 -1.234375 2.84375 -1.234375q1.859375 0 2.84375 1.21875q0.984375 1.21875 1.015625 3.515625l0 2.09375zm-2.265625 -2.296875q0 -1.421875 -0.390625 -2.0625q-0.375 -0.640625 -1.203125 -0.640625q-0.796875 0 -1.171875 0.609375q-0.375 0.609375 -0.40625 1.921875l0 2.765625q0 1.390625 0.375 2.0625q0.390625 0.671875 1.21875 0.671875q0.828125 0 1.1875 -0.640625q0.375 -0.65625 0.390625 -1.984375l0 -2.703125zm7.1015625 1.0625l1.421875 -2.515625l2.40625 0l-2.40625 4.140625l2.515625 4.3125l-2.421875 0l-1.515625 -2.65625l-1.5 2.65625l-2.421875 0l2.5 -4.3125l-2.390625 -4.140625l2.421875 0l1.390625 2.515625zm11.5 1.65625l1.296875 0l0 1.8125l-1.296875 0l0 2.46875l-2.25 0l0 -2.46875l-4.671875 0l-0.09375 -1.421875l4.734375 -7.484375l2.28125 0l0 7.09375zm-4.765625 0l2.515625 0l0 -4.015625l-0.15625 0.25l-2.359375 3.765625zm14.9296875 -0.421875q0 2.359375 -0.984375 3.609375q-0.96875 1.25 -2.859375 1.25q-1.859375 0 -2.84375 -1.21875q-0.984375 -1.234375 -1.0 -3.53125l0 -2.09375q0 -2.375 0.984375 -3.609375q0.984375 -1.234375 2.84375 -1.234375q1.859375 0 2.84375 1.21875q0.984375 1.21875 1.015625 3.515625l0 2.09375zm-2.265625 -2.296875q0 -1.421875 -0.390625 -2.0625q-0.375 -0.640625 -1.203125 -0.640625q-0.796875 0 -1.171875 0.609375q-0.375 0.609375 -0.40625 1.921875l0 2.765625q0 1.390625 0.375 2.0625q0.390625 0.671875 1.21875 0.671875q0.828125 0 1.1875 -0.640625q0.375 -0.65625 0.390625 -1.984375l0 -2.703125z" fill-rule="nonzero"/>
        <path fill="#d9d9d9" d="m395.7257 449.24847l0 0c0 -24.74411 20.059082 -44.80316 44.80316 -44.80316l0 0c11.882538 0 23.278381 4.720337 31.680603 13.122559c8.402222 8.402222 13.122559 19.798065 13.122559 31.680603l0 0c0 24.74408 -20.059052 44.80313 -44.80316 44.80313l0 0c-24.74408 0 -44.80316 -20.059052 -44.80316 -44.80313z" fill-rule="evenodd"/>
        <path stroke="#000000" stroke-width="2.0" stroke-linejoin="round" stroke-linecap="butt" d="m395.7257 449.24847l0 0c0 -24.74411 20.059082 -44.80316 44.80316 -44.80316l0 0c11.882538 0 23.278381 4.720337 31.680603 13.122559c8.402222 8.402222 13.122559 19.798065 13.122559 31.680603l0 0c0 24.74408 -20.059052 44.80313 -44.80316 44.80313l0 0c-24.74408 0 -44.80316 -20.059052 -44.80316 -44.80313z" fill-rule="evenodd"/>
        <path fill="#000000" d="m427.13434 455.2647q-1.4375 -0.03125 -2.15625 -1.015625q-0.71875 -1.0 -0.65625 -2.859375q0.015625 -0.578125 0.09375 -1.140625l0.28125 -1.890625q0.375 -2.4375 1.421875 -3.625q1.0625 -1.203125 2.78125 -1.15625q1.453125 0.03125 2.171875 1.0q0.71875 0.953125 0.65625 2.796875q-0.015625 0.578125 -0.09375 1.140625l-0.265625 1.84375q-0.421875 2.5625 -1.46875 3.765625q-1.046875 1.1875 -2.765625 1.140625zm3.140625 -7.0q0.109375 -0.953125 0.09375 -1.46875q-0.03125 -1.984375 -1.53125 -2.046875q-1.09375 -0.03125 -1.78125 0.8125q-0.671875 0.84375 -0.9375 2.65625l-0.328125 2.265625q-0.109375 0.90625 -0.109375 1.484375q0.046875 2.0625 1.53125 2.125q1.046875 0.046875 1.71875 -0.765625q0.671875 -0.8125 0.96875 -2.578125l0.375 -2.484375zm5.84375 1.46875l2.296875 -3.078125l1.734375 0l-3.390625 4.25l2.0625 4.203125l-1.53125 0l-1.40625 -3.15625l-2.375 3.15625l-1.734375 0l3.5 -4.34375l-2.0 -4.109375l1.546875 0l1.296875 3.078125zm5.6171875 -0.359375l1.4375 -5.640625l5.671875 0l-0.203125 1.328125l-4.453125 0l-0.875 3.109375q0.859375 -0.5 1.859375 -0.484375q1.40625 0.015625 2.15625 1.0625q0.765625 1.046875 0.625 2.671875q-0.140625 1.75 -1.234375 2.828125q-1.09375 1.0625 -2.734375 1.03125q-1.359375 -0.015625 -2.203125 -0.875q-0.828125 -0.875 -0.875 -2.296875l1.328125 0q0.046875 0.9375 0.515625 1.453125q0.484375 0.515625 1.296875 0.53125q1.0 0.03125 1.6875 -0.703125q0.6875 -0.75 0.8125 -1.953125q0.109375 -1.0625 -0.375 -1.734375q-0.46875 -0.6875 -1.390625 -0.71875q-0.578125 -0.015625 -1.015625 0.171875q-0.4375 0.1875 -0.875 0.53125l-1.15625 -0.3125zm10.765625 5.890625q-1.4375 -0.03125 -2.15625 -1.015625q-0.71875 -1.0 -0.65625 -2.859375q0.015625 -0.578125 0.09375 -1.140625l0.28125 -1.890625q0.375 -2.4375 1.421875 -3.625q1.0625 -1.203125 2.78125 -1.15625q1.453125 0.03125 2.171875 1.0q0.71875 0.953125 0.65625 2.796875q-0.015625 0.578125 -0.09375 1.140625l-0.265625 1.84375q-0.421875 2.5625 -1.46875 3.765625q-1.046875 1.1875 -2.765625 1.140625zm3.140625 -7.0q0.109375 -0.953125 0.09375 -1.46875q-0.03125 -1.984375 -1.53125 -2.046875q-1.09375 -0.03125 -1.78125 0.8125q-0.671875 0.84375 -0.9375 2.65625l-0.328125 2.265625q-0.109375 0.90625 -0.109375 1.484375q0.046875 2.0625 1.53125 2.125q1.046875 0.046875 1.71875 -0.765625q0.671875 -0.8125 0.96875 -2.578125l0.375 -2.484375z" fill-rule="nonzero"/>
        <path fill="#fff2cc" d="m232.11154 617.37006l0 0c0 -24.74408 20.059067 -44.8031 44.80316 -44.8031l0 0c11.882538 0 23.278381 4.720276 31.680603 13.122498c8.402222 8.402222 13.122528 19.798096 13.122528 31.680603l0 0c0 24.74414 -20.059052 44.80316 -44.80313 44.80316l0 0c-24.744095 0 -44.80316 -20.059021 -44.80316 -44.80316z" fill-rule="evenodd"/>
        <path stroke="#000000" stroke-width="2.0" stroke-linejoin="round" stroke-linecap="butt" d="m232.11154 617.37006l0 0c0 -24.74408 20.059067 -44.8031 44.80316 -44.8031l0 0c11.882538 0 23.278381 4.720276 31.680603 13.122498c8.402222 8.402222 13.122528 19.798096 13.122528 31.680603l0 0c0 24.74414 -20.059052 44.80316 -44.80313 44.80316l0 0c-24.744095 0 -44.80316 -20.059021 -44.80316 -44.80316z" fill-rule="evenodd"/>
        <path fill="#000000" d="m267.51236 618.527q0 2.359375 -0.984375 3.609375q-0.96875 1.25 -2.859375 1.25q-1.859375 0 -2.84375 -1.21875q-0.984375 -1.234375 -1.0 -3.53125l0 -2.09375q0 -2.375 0.984375 -3.609375q0.984375 -1.234375 2.84375 -1.234375q1.859375 0 2.84375 1.21875q0.984375 1.21875 1.015625 3.515625l0 2.09375zm-2.265625 -2.296875q0 -1.421875 -0.390625 -2.0625q-0.375 -0.640625 -1.203125 -0.640625q-0.796875 0 -1.171875 0.609375q-0.375 0.609375 -0.40625 1.921875l0 2.765625q0 1.390625 0.375 2.0625q0.390625 0.671875 1.21875 0.671875q0.828125 0 1.1875 -0.640625q0.375 -0.65625 0.390625 -1.984375l0 -2.703125zm7.1015625 1.0625l1.421875 -2.515625l2.40625 0l-2.40625 4.140625l2.515625 4.3125l-2.421875 0l-1.515625 -2.65625l-1.5 2.65625l-2.421875 0l2.5 -4.3125l-2.390625 -4.140625l2.421875 0l1.390625 2.515625zm10.953125 -5.5625l0 1.859375l-0.21875 0q-1.53125 0.03125 -2.46875 0.8125q-0.9375 0.765625 -1.125 2.140625q0.90625 -0.921875 2.296875 -0.921875q1.484375 0 2.359375 1.0625q0.875 1.0625 0.875 2.796875q0 1.109375 -0.484375 2.015625q-0.484375 0.890625 -1.359375 1.390625q-0.875 0.5 -1.984375 0.5q-1.796875 0 -2.90625 -1.25q-1.109375 -1.25 -1.109375 -3.34375l0 -0.8125q0 -1.84375 0.703125 -3.265625q0.703125 -1.421875 2.0 -2.1875q1.3125 -0.78125 3.046875 -0.796875l0.375 0zm-2.203125 5.703125q-0.546875 0 -1.0 0.28125q-0.4375 0.28125 -0.65625 0.75l0 0.6875q0 1.140625 0.4375 1.78125q0.453125 0.625 1.265625 0.625q0.71875 0 1.171875 -0.5625q0.453125 -0.578125 0.453125 -1.5q0 -0.921875 -0.453125 -1.484375q-0.453125 -0.578125 -1.21875 -0.578125zm12.9140625 1.09375q0 2.359375 -0.984375 3.609375q-0.96875 1.25 -2.859375 1.25q-1.859375 0 -2.84375 -1.21875q-0.984375 -1.234375 -1.0 -3.53125l0 -2.09375q0 -2.375 0.984375 -3.609375q0.984375 -1.234375 2.84375 -1.234375q1.859375 0 2.84375 1.21875q0.984375 1.21875 1.015625 3.515625l0 2.09375zm-2.265625 -2.296875q0 -1.421875 -0.390625 -2.0625q-0.375 -0.640625 -1.203125 -0.640625q-0.796875 0 -1.171875 0.609375q-0.375 0.609375 -0.40625 1.921875l0 2.765625q0 1.390625 0.375 2.0625q0.390625 0.671875 1.21875 0.671875q0.828125 0 1.1875 -0.640625q0.375 -0.65625 0.390625 -1.984375l0 -2.703125z" fill-rule="nonzero"/>
        <path fill="#000000" fill-opacity="0.0" d="m321.71652 113.00525l74.01575 0" fill-rule="evenodd"/>
        <path stroke="#990000" stroke-width="2.0" stroke-linejoin="round" stroke-linecap="butt" d="m321.71652 113.00525l62.015747 0" fill-rule="evenodd"/>
        <path fill="#990000" stroke="#990000" stroke-width="2.0" stroke-linecap="butt" d="m383.73227 116.308716l9.076202 -3.3034668l-9.076202 -3.3034668z" fill-rule="evenodd"/>
        <path fill="#000000" fill-opacity="0.0" d="m408.84827 144.68587l-100.25198 0" fill-rule="evenodd"/>
        <path stroke="#666666" stroke-width="2.0" stroke-linejoin="round" stroke-linecap="butt" d="m408.84827 144.68585l-88.25198 0" fill-rule="evenodd"/>
        <path fill="#666666" stroke="#666666" stroke-width="2.0" stroke-linecap="butt" d="m320.59628 141.3824l-9.076172 3.3034515l9.076172 3.3034668z" fill-rule="evenodd"/>
        <path fill="#000000" fill-opacity="0.0" d="m276.9134 157.8084l0 78.519684" fill-rule="evenodd"/>
        <path stroke="#990000" stroke-width="2.0" stroke-linejoin="round" stroke-linecap="butt" d="m276.9134 157.8084l0 66.519684" fill-rule="evenodd"/>
        <path fill="#990000" stroke="#990000" stroke-width="2.0" stroke-linecap="butt" d="m273.60992 224.32808l3.3034668 9.076202l3.3034668 -9.076202z" fill-rule="evenodd"/>
        <path fill="#000000" fill-opacity="0.0" d="m321.71783 281.12686l74.01575 0" fill-rule="evenodd"/>
        <path stroke="#38761d" stroke-width="2.0" stroke-linejoin="round" stroke-linecap="butt" d="m321.71783 281.12686l62.015747 0" fill-rule="evenodd"/>
        <path fill="#38761d" stroke="#38761d" stroke-width="2.0" stroke-linecap="butt" d="m383.73358 284.43033l9.076202 -3.3034668l-9.076202 -3.3034668z" fill-rule="evenodd"/>
        <path fill="#000000" fill-opacity="0.0" d="m408.84958 312.80746l-100.25198 0" fill-rule="evenodd"/>
        <path stroke="#666666" stroke-width="2.0" stroke-linejoin="round" stroke-linecap="butt" d="m408.84958 312.80746l-88.25198 0" fill-rule="evenodd"/>
        <path fill="#666666" stroke="#666666" stroke-width="2.0" stroke-linecap="butt" d="m320.5976 309.504l-9.076172 3.3034668l9.076172 3.3034668z" fill-rule="evenodd"/>
        <path fill="#000000" fill-opacity="0.0" d="m276.9147 325.93002l0 78.519684" fill-rule="evenodd"/>
        <path stroke="#38761d" stroke-width="2.0" stroke-linejoin="round" stroke-linecap="butt" d="m276.9147 325.93002l0 66.51965" fill-rule="evenodd"/>
        <path fill="#38761d" stroke="#38761d" stroke-width="2.0" stroke-linecap="butt" d="m273.61124 392.44968l3.3034668 9.076202l3.3034668 -9.076202z" fill-rule="evenodd"/>
        <path fill="#000000" fill-opacity="0.0" d="m321.71652 449.24847l74.01575 0" fill-rule="evenodd"/>
        <path stroke="#1155cc" stroke-width="2.0" stroke-linejoin="round" stroke-linecap="butt" d="m321.71652 449.24847l62.015747 0" fill-rule="evenodd"/>
        <path fill="#1155cc" stroke="#1155cc" stroke-width="2.0" stroke-linecap="butt" d="m383.73227 452.55194l9.076202 -3.3034668l-9.076202 -3.3034668z" fill-rule="evenodd"/>
        <path fill="#000000" fill-opacity="0.0" d="m408.84827 480.92908l-100.25198 0" fill-rule="evenodd"/>
        <path stroke="#666666" stroke-width="2.0" stroke-linejoin="round" stroke-linecap="butt" d="m408.84827 480.9291l-88.25198 0" fill-rule="evenodd"/>
        <path fill="#666666" stroke="#666666" stroke-width="2.0" stroke-linecap="butt" d="m320.59628 477.62564l-9.076172 3.3034668l9.076172 3.3034363z" fill-rule="evenodd"/>
        <path fill="#000000" fill-opacity="0.0" d="m424.24933 602.3884l74.01578 0" fill-rule="evenodd"/>
        <path stroke="#990000" stroke-width="2.0" stroke-linejoin="round" stroke-linecap="butt" d="m424.24933 602.3884l62.015778 0" fill-rule="evenodd"/>
        <path fill="#990000" stroke="#990000" stroke-width="2.0" stroke-linecap="butt" d="m486.2651 605.6919l9.076172 -3.3034668l-9.076172 -3.3034668z" fill-rule="evenodd"/>
        <path fill="#000000" fill-opacity="0.0" d="m509.0105 583.0026l179.18109 0l0 38.771667l-179.18109 0z" fill-rule="evenodd"/>
        <path fill="#990000" d="m518.7605 603.06573q0 -1.953125 0.921875 -3.125q0.921875 -1.1875 2.40625 -1.1875q1.484375 0 2.359375 1.015625l0 -4.40625l1.4375 0l0 12.0l-1.328125 0l-0.0625 -0.90625q-0.875 1.0625 -2.421875 1.0625q-1.46875 0 -2.390625 -1.203125q-0.921875 -1.203125 -0.921875 -3.140625l0 -0.109375zm1.4375 0.15625q0 1.4375 0.59375 2.25q0.59375 0.8125 1.640625 0.8125q1.375 0 2.015625 -1.234375l0 -3.875q-0.65625 -1.203125 -2.0 -1.203125q-1.0625 0 -1.65625 0.828125q-0.59375 0.8125 -0.59375 2.421875zm11.4453125 4.296875q-1.71875 0 -2.796875 -1.125q-1.078125 -1.140625 -1.078125 -3.03125l0 -0.265625q0 -1.25 0.46875 -2.234375q0.484375 -1.0 1.34375 -1.546875q0.875 -0.5625 1.875 -0.5625q1.65625 0 2.5625 1.09375q0.921875 1.078125 0.921875 3.09375l0 0.609375l-5.734375 0q0.03125 1.25 0.734375 2.015625q0.703125 0.765625 1.78125 0.765625q0.765625 0 1.296875 -0.3125q0.53125 -0.3125 0.921875 -0.828125l0.890625 0.6875q-1.0625 1.640625 -3.1875 1.640625zm-0.1875 -7.578125q-0.875 0 -1.46875 0.640625q-0.59375 0.625 -0.734375 1.78125l4.234375 0l0 -0.109375q-0.0625 -1.109375 -0.59375 -1.703125q-0.53125 -0.609375 -1.4375 -0.609375zm8.5390625 6.390625q0.78125 0 1.359375 -0.46875q0.578125 -0.46875 0.640625 -1.171875l1.359375 0q-0.03125 0.734375 -0.5 1.390625q-0.453125 0.65625 -1.234375 1.046875q-0.765625 0.390625 -1.625 0.390625q-1.71875 0 -2.75 -1.15625q-1.015625 -1.15625 -1.015625 -3.15625l0 -0.234375q0 -1.234375 0.453125 -2.1875q0.453125 -0.96875 1.296875 -1.5q0.859375 -0.53125 2.015625 -0.53125q1.421875 0 2.359375 0.859375q0.9375 0.84375 1.0 2.203125l-1.359375 0q-0.0625 -0.828125 -0.625 -1.34375q-0.5625 -0.53125 -1.375 -0.53125q-1.109375 0 -1.71875 0.796875q-0.59375 0.78125 -0.59375 2.28125l0 0.28125q0 1.453125 0.59375 2.25q0.609375 0.78125 1.71875 0.78125zm4.609375 -3.28125q0 -1.234375 0.484375 -2.21875q0.484375 -1.0 1.359375 -1.53125q0.875 -0.546875 1.984375 -0.546875q1.734375 0 2.796875 1.203125q1.0625 1.1875 1.0625 3.171875l0 0.09375q0 1.234375 -0.46875 2.21875q-0.46875 0.984375 -1.359375 1.53125q-0.875 0.546875 -2.015625 0.546875q-1.71875 0 -2.78125 -1.1875q-1.0625 -1.203125 -1.0625 -3.171875l0 -0.109375zm1.453125 0.171875q0 1.40625 0.640625 2.265625q0.65625 0.84375 1.75 0.84375q1.109375 0 1.75 -0.859375q0.65625 -0.859375 0.65625 -2.421875q0 -1.390625 -0.671875 -2.25q-0.65625 -0.859375 -1.75 -0.859375q-1.0625 0 -1.71875 0.859375q-0.65625 0.84375 -0.65625 2.421875zm7.703125 -0.15625q0 -1.953125 0.921875 -3.125q0.921875 -1.1875 2.40625 -1.1875q1.484375 0 2.359375 1.015625l0 -4.40625l1.4375 0l0 12.0l-1.328125 0l-0.0625 -0.90625q-0.875 1.0625 -2.421875 1.0625q-1.46875 0 -2.390625 -1.203125q-0.921875 -1.203125 -0.921875 -3.140625l0 -0.109375zm1.4375 0.15625q0 1.4375 0.59375 2.25q0.59375 0.8125 1.640625 0.8125q1.375 0 2.015625 -1.234375l0 -3.875q-0.65625 -1.203125 -2.0 -1.203125q-1.0625 0 -1.65625 0.828125q-0.59375 0.8125 -0.59375 2.421875zm11.4453125 4.296875q-1.71875 0 -2.796875 -1.125q-1.078125 -1.140625 -1.078125 -3.03125l0 -0.265625q0 -1.25 0.46875 -2.234375q0.484375 -1.0 1.34375 -1.546875q0.875 -0.5625 1.875 -0.5625q1.65625 0 2.5625 1.09375q0.921875 1.078125 0.921875 3.09375l0 0.609375l-5.734375 0q0.03125 1.25 0.734375 2.015625q0.703125 0.765625 1.78125 0.765625q0.765625 0 1.296875 -0.3125q0.53125 -0.3125 0.921875 -0.828125l0.890625 0.6875q-1.0625 1.640625 -3.1875 1.640625zm-0.1875 -7.578125q-0.875 0 -1.46875 0.640625q-0.59375 0.625 -0.734375 1.78125l4.234375 0l0 -0.109375q-0.0625 -1.109375 -0.59375 -1.703125q-0.53125 -0.609375 -1.4375 -0.609375zm11.2421875 8.609375l-7.15625 0l0 -1.1875l7.15625 0l0 1.1875zm2.703125 -1.1875l-1.453125 0l0 -8.453125l1.453125 0l0 8.453125zm-1.5625 -10.703125q0 -0.34375 0.203125 -0.578125q0.21875 -0.25 0.640625 -0.25q0.421875 0 0.640625 0.25q0.21875 0.234375 0.21875 0.59375q0 0.34375 -0.21875 0.578125q-0.21875 0.234375 -0.640625 0.234375q-0.421875 0 -0.640625 -0.234375q-0.203125 -0.234375 -0.203125 -0.59375zm5.2265625 2.25l0.046875 0.9375q0.921875 -1.09375 2.5 -1.09375q1.78125 0 2.421875 1.359375q0.421875 -0.609375 1.09375 -0.984375q0.671875 -0.375 1.59375 -0.375q2.78125 0 2.828125 2.9375l0 5.671875l-1.4375 0l0 -5.578125q0 -0.90625 -0.421875 -1.359375q-0.40625 -0.453125 -1.390625 -0.453125q-0.796875 0 -1.328125 0.484375q-0.53125 0.484375 -0.625 1.296875l0 5.609375l-1.453125 0l0 -5.546875q0 -1.84375 -1.796875 -1.84375q-1.421875 0 -1.953125 1.21875l0 6.171875l-1.4375 0l0 -8.453125l1.359375 0zm17.882812 8.453125q-0.125 -0.25 -0.203125 -0.890625q-1.0 1.046875 -2.40625 1.046875q-1.25 0 -2.046875 -0.703125q-0.796875 -0.71875 -0.796875 -1.796875q0 -1.328125 1.0 -2.046875q1.0 -0.734375 2.828125 -0.734375l1.40625 0l0 -0.671875q0 -0.75 -0.453125 -1.203125q-0.453125 -0.453125 -1.34375 -0.453125q-0.765625 0 -1.296875 0.390625q-0.515625 0.390625 -0.515625 0.953125l-1.453125 0q0 -0.640625 0.4375 -1.21875q0.453125 -0.59375 1.21875 -0.9375q0.78125 -0.34375 1.703125 -0.34375q1.453125 0 2.28125 0.734375q0.828125 0.71875 0.859375 2.0l0 3.890625q0 1.171875 0.296875 1.859375l0 0.125l-1.515625 0zm-2.390625 -1.109375q0.671875 0 1.28125 -0.34375q0.609375 -0.359375 0.890625 -0.921875l0 -1.734375l-1.140625 0q-2.65625 0 -2.65625 1.5625q0 0.671875 0.453125 1.0625q0.453125 0.375 1.171875 0.375zm5.53125 -3.1875q0 -1.984375 0.90625 -3.140625q0.921875 -1.171875 2.4375 -1.171875q1.546875 0 2.40625 1.09375l0.078125 -0.9375l1.3125 0l0 8.25q0 1.640625 -0.96875 2.578125q-0.96875 0.953125 -2.609375 0.953125q-0.921875 0 -1.796875 -0.390625q-0.875 -0.390625 -1.328125 -1.0625l0.75 -0.875q0.921875 1.15625 2.265625 1.15625q1.0625 0 1.640625 -0.59375q0.59375 -0.59375 0.59375 -1.6875l0 -0.71875q-0.859375 1.0 -2.359375 1.0q-1.484375 0 -2.40625 -1.1875q-0.921875 -1.203125 -0.921875 -3.265625zm1.453125 0.15625q0 1.4375 0.578125 2.25q0.59375 0.8125 1.65625 0.8125q1.359375 0 2.0 -1.234375l0 -3.859375q-0.65625 -1.21875 -1.984375 -1.21875q-1.0625 0 -1.65625 0.828125q-0.59375 0.8125 -0.59375 2.421875zm11.3828125 4.296875q-1.71875 0 -2.796875 -1.125q-1.078125 -1.140625 -1.078125 -3.03125l0 -0.265625q0 -1.25 0.46875 -2.234375q0.484375 -1.0 1.34375 -1.546875q0.875 -0.5625 1.875 -0.5625q1.65625 0 2.5625 1.09375q0.921875 1.078125 0.921875 3.09375l0 0.609375l-5.734375 0q0.03125 1.25 0.734375 2.015625q0.703125 0.765625 1.78125 0.765625q0.765625 0 1.296875 -0.3125q0.53125 -0.3125 0.921875 -0.828125l0.890625 0.6875q-1.0625 1.640625 -3.1875 1.640625zm-0.1875 -7.578125q-0.875 0 -1.46875 0.640625q-0.59375 0.625 -0.734375 1.78125l4.234375 0l0 -0.109375q-0.0625 -1.109375 -0.59375 -1.703125q-0.53125 -0.609375 -1.4375 -0.609375zm11.2421875 8.609375l-7.15625 0l0 -1.1875l7.15625 0l0 1.1875zm4.515625 -2.21875q0.78125 0 1.359375 -0.46875q0.578125 -0.46875 0.640625 -1.171875l1.359375 0q-0.03125 0.734375 -0.5 1.390625q-0.453125 0.65625 -1.234375 1.046875q-0.765625 0.390625 -1.625 0.390625q-1.71875 0 -2.75 -1.15625q-1.015625 -1.15625 -1.015625 -3.15625l0 -0.234375q0 -1.234375 0.453125 -2.1875q0.453125 -0.96875 1.296875 -1.5q0.859375 -0.53125 2.015625 -0.53125q1.421875 0 2.359375 0.859375q0.9375 0.84375 1.0 2.203125l-1.359375 0q-0.0625 -0.828125 -0.625 -1.34375q-0.5625 -0.53125 -1.375 -0.53125q-1.109375 0 -1.71875 0.796875q-0.59375 0.78125 -0.59375 2.28125l0 0.28125q0 1.453125 0.59375 2.25q0.609375 0.78125 1.71875 0.78125zm4.609375 -3.28125q0 -1.234375 0.484375 -2.21875q0.484375 -1.0 1.359375 -1.53125q0.875 -0.546875 1.984375 -0.546875q1.734375 0 2.796875 1.203125q1.0625 1.1875 1.0625 3.171875l0 0.09375q0 1.234375 -0.46875 2.21875q-0.46875 0.984375 -1.359375 1.53125q-0.875 0.546875 -2.015625 0.546875q-1.71875 0 -2.78125 -1.1875q-1.0625 -1.203125 -1.0625 -3.171875l0 -0.109375zm1.453125 0.171875q0 1.40625 0.640625 2.265625q0.65625 0.84375 1.75 0.84375q1.109375 0 1.75 -0.859375q0.65625 -0.859375 0.65625 -2.421875q0 -1.390625 -0.671875 -2.25q-0.65625 -0.859375 -1.75 -0.859375q-1.0625 0 -1.71875 0.859375q-0.65625 0.84375 -0.65625 2.421875zm9.421875 -4.3125l0.046875 1.0625q0.96875 -1.21875 2.53125 -1.21875q2.671875 0 2.703125 3.015625l0 5.59375l-1.453125 0l0 -5.59375q0 -0.921875 -0.421875 -1.359375q-0.40625 -0.4375 -1.265625 -0.4375q-0.703125 0 -1.234375 0.375q-0.53125 0.375 -0.828125 0.984375l0 6.03125l-1.453125 0l0 -8.453125l1.375 0zm7.9375 8.453125l0 -7.34375l-1.328125 0l0 -1.109375l1.328125 0l0 -0.71875q0 -1.421875 0.8125 -2.203125q0.8125 -0.796875 2.28125 -0.796875q0.875 0 2.21875 0.484375l-0.25 1.21875q-0.96875 -0.390625 -1.859375 -0.390625q-0.921875 0 -1.34375 0.421875q-0.40625 0.40625 -0.40625 1.25l0 0.734375l1.734375 0l0 1.109375l-1.734375 0l0 7.34375l-1.453125 0zm6.03125 0l-1.453125 0l0 -8.453125l1.453125 0l0 8.453125zm2.0 -4.296875q0 -1.984375 0.90625 -3.140625q0.921875 -1.171875 2.4375 -1.171875q1.546875 0 2.40625 1.09375l0.078125 -0.9375l1.3125 0l0 8.25q0 1.640625 -0.96875 2.578125q-0.96875 0.953125 -2.609375 0.953125q-0.921875 0 -1.796875 -0.390625q-0.875 -0.390625 -1.328125 -1.0625l0.75 -0.875q0.921875 1.15625 2.265625 1.15625q1.0625 0 1.640625 -0.59375q0.59375 -0.59375 0.59375 -1.6875l0 -0.71875q-0.859375 1.0 -2.359375 1.0q-1.484375 0 -2.40625 -1.1875q-0.921875 -1.203125 -0.921875 -3.265625zm1.453125 0.15625q0 1.4375 0.578125 2.25q0.59375 0.8125 1.65625 0.8125q1.359375 0 2.0 -1.234375l0 -3.859375q-0.65625 -1.21875 -1.984375 -1.21875q-1.0625 0 -1.65625 0.828125q-0.59375 0.8125 -0.59375 2.421875z" fill-rule="nonzero"/>
        <path fill="#000000" fill-opacity="0.0" d="m424.24933 640.0623l74.01578 0" fill-rule="evenodd"/>
        <path stroke="#38761d" stroke-width="2.0" stroke-linejoin="round" stroke-linecap="butt" d="m424.24933 640.0623l62.015778 0" fill-rule="evenodd"/>
        <path fill="#38761d" stroke="#38761d" stroke-width="2.0" stroke-linecap="butt" d="m486.2651 643.3658l9.076172 -3.3034668l-9.076172 -3.3034668z" fill-rule="evenodd"/>
        <path fill="#000000" fill-opacity="0.0" d="m509.0105 620.6765l179.18109 0l0 38.771667l-179.18109 0z" fill-rule="evenodd"/>
        <path fill="#38761d" d="m518.7605 640.7396q0 -1.953125 0.921875 -3.125q0.921875 -1.1875 2.40625 -1.1875q1.484375 0 2.359375 1.015625l0 -4.40625l1.4375 0l0 12.0l-1.328125 0l-0.0625 -0.90625q-0.875 1.0625 -2.421875 1.0625q-1.46875 0 -2.390625 -1.203125q-0.921875 -1.203125 -0.921875 -3.140625l0 -0.109375zm1.4375 0.15625q0 1.4375 0.59375 2.25q0.59375 0.8125 1.640625 0.8125q1.375 0 2.015625 -1.234375l0 -3.875q-0.65625 -1.203125 -2.0 -1.203125q-1.0625 0 -1.65625 0.828125q-0.59375 0.8125 -0.59375 2.421875zm11.4453125 4.296875q-1.71875 0 -2.796875 -1.125q-1.078125 -1.140625 -1.078125 -3.03125l0 -0.265625q0 -1.25 0.46875 -2.234375q0.484375 -1.0 1.34375 -1.546875q0.875 -0.5625 1.875 -0.5625q1.65625 0 2.5625 1.09375q0.921875 1.078125 0.921875 3.09375l0 0.609375l-5.734375 0q0.03125 1.25 0.734375 2.015625q0.703125 0.765625 1.78125 0.765625q0.765625 0 1.296875 -0.3125q0.53125 -0.3125 0.921875 -0.828125l0.890625 0.6875q-1.0625 1.640625 -3.1875 1.640625zm-0.1875 -7.578125q-0.875 0 -1.46875 0.640625q-0.59375 0.625 -0.734375 1.78125l4.234375 0l0 -0.109375q-0.0625 -1.109375 -0.59375 -1.703125q-0.53125 -0.609375 -1.4375 -0.609375zm8.5390625 6.390625q0.78125 0 1.359375 -0.46875q0.578125 -0.46875 0.640625 -1.171875l1.359375 0q-0.03125 0.734375 -0.5 1.390625q-0.453125 0.65625 -1.234375 1.046875q-0.765625 0.390625 -1.625 0.390625q-1.71875 0 -2.75 -1.15625q-1.015625 -1.15625 -1.015625 -3.15625l0 -0.234375q0 -1.234375 0.453125 -2.1875q0.453125 -0.96875 1.296875 -1.5q0.859375 -0.53125 2.015625 -0.53125q1.421875 0 2.359375 0.859375q0.9375 0.84375 1.0 2.203125l-1.359375 0q-0.0625 -0.828125 -0.625 -1.34375q-0.5625 -0.53125 -1.375 -0.53125q-1.109375 0 -1.71875 0.796875q-0.59375 0.78125 -0.59375 2.28125l0 0.28125q0 1.453125 0.59375 2.25q0.609375 0.78125 1.71875 0.78125zm4.609375 -3.28125q0 -1.234375 0.484375 -2.21875q0.484375 -1.0 1.359375 -1.53125q0.875 -0.546875 1.984375 -0.546875q1.734375 0 2.796875 1.203125q1.0625 1.1875 1.0625 3.171875l0 0.09375q0 1.234375 -0.46875 2.21875q-0.46875 0.984375 -1.359375 1.53125q-0.875 0.546875 -2.015625 0.546875q-1.71875 0 -2.78125 -1.1875q-1.0625 -1.203125 -1.0625 -3.171875l0 -0.109375zm1.453125 0.171875q0 1.40625 0.640625 2.265625q0.65625 0.84375 1.75 0.84375q1.109375 0 1.75 -0.859375q0.65625 -0.859375 0.65625 -2.421875q0 -1.390625 -0.671875 -2.25q-0.65625 -0.859375 -1.75 -0.859375q-1.0625 0 -1.71875 0.859375q-0.65625 0.84375 -0.65625 2.421875zm7.703125 -0.15625q0 -1.953125 0.921875 -3.125q0.921875 -1.1875 2.40625 -1.1875q1.484375 0 2.359375 1.015625l0 -4.40625l1.4375 0l0 12.0l-1.328125 0l-0.0625 -0.90625q-0.875 1.0625 -2.421875 1.0625q-1.46875 0 -2.390625 -1.203125q-0.921875 -1.203125 -0.921875 -3.140625l0 -0.109375zm1.4375 0.15625q0 1.4375 0.59375 2.25q0.59375 0.8125 1.640625 0.8125q1.375 0 2.015625 -1.234375l0 -3.875q-0.65625 -1.203125 -2.0 -1.203125q-1.0625 0 -1.65625 0.828125q-0.59375 0.8125 -0.59375 2.421875zm11.4453125 4.296875q-1.71875 0 -2.796875 -1.125q-1.078125 -1.140625 -1.078125 -3.03125l0 -0.265625q0 -1.25 0.46875 -2.234375q0.484375 -1.0 1.34375 -1.546875q0.875 -0.5625 1.875 -0.5625q1.65625 0 2.5625 1.09375q0.921875 1.078125 0.921875 3.09375l0 0.609375l-5.734375 0q0.03125 1.25 0.734375 2.015625q0.703125 0.765625 1.78125 0.765625q0.765625 0 1.296875 -0.3125q0.53125 -0.3125 0.921875 -0.828125l0.890625 0.6875q-1.0625 1.640625 -3.1875 1.640625zm-0.1875 -7.578125q-0.875 0 -1.46875 0.640625q-0.59375 0.625 -0.734375 1.78125l4.234375 0l0 -0.109375q-0.0625 -1.109375 -0.59375 -1.703125q-0.53125 -0.609375 -1.4375 -0.609375zm11.2421875 8.609375l-7.15625 0l0 -1.1875l7.15625 0l0 1.1875zm1.84375 -1.1875l0 -7.34375l-1.34375 0l0 -1.109375l1.34375 0l0 -0.875q0 -1.359375 0.71875 -2.09375q0.734375 -0.75 2.0625 -0.75q0.5 0 0.984375 0.140625l-0.078125 1.171875q-0.359375 -0.078125 -0.78125 -0.078125q-0.703125 0 -1.09375 0.421875q-0.375 0.40625 -0.375 1.171875l0 0.890625l1.8125 0l0 1.109375l-1.8125 0l0 7.34375l-1.4375 0zm8.9296875 -7.15625q-0.328125 -0.0625 -0.71875 -0.0625q-1.421875 0 -1.921875 1.21875l0 6.0l-1.453125 0l0 -8.453125l1.40625 0l0.03125 0.96875q0.703125 -1.125 2.015625 -1.125q0.421875 0 0.640625 0.109375l0 1.34375zm6.2265625 7.15625q-0.125 -0.25 -0.203125 -0.890625q-1.0 1.046875 -2.40625 1.046875q-1.25 0 -2.046875 -0.703125q-0.796875 -0.71875 -0.796875 -1.796875q0 -1.328125 1.0 -2.046875q1.0 -0.734375 2.828125 -0.734375l1.40625 0l0 -0.671875q0 -0.75 -0.453125 -1.203125q-0.453125 -0.453125 -1.34375 -0.453125q-0.765625 0 -1.296875 0.390625q-0.515625 0.390625 -0.515625 0.953125l-1.453125 0q0 -0.640625 0.4375 -1.21875q0.453125 -0.59375 1.21875 -0.9375q0.78125 -0.34375 1.703125 -0.34375q1.453125 0 2.28125 0.734375q0.828125 0.71875 0.859375 2.0l0 3.890625q0 1.171875 0.296875 1.859375l0 0.125l-1.515625 0zm-2.390625 -1.109375q0.671875 0 1.28125 -0.34375q0.609375 -0.359375 0.890625 -0.921875l0 -1.734375l-1.140625 0q-2.65625 0 -2.65625 1.5625q0 0.671875 0.453125 1.0625q0.453125 0.375 1.171875 0.375zm7.234375 -7.34375l0.046875 0.9375q0.921875 -1.09375 2.5 -1.09375q1.78125 0 2.421875 1.359375q0.421875 -0.609375 1.09375 -0.984375q0.671875 -0.375 1.59375 -0.375q2.78125 0 2.828125 2.9375l0 5.671875l-1.4375 0l0 -5.578125q0 -0.90625 -0.421875 -1.359375q-0.40625 -0.453125 -1.390625 -0.453125q-0.796875 0 -1.328125 0.484375q-0.53125 0.484375 -0.625 1.296875l0 5.609375l-1.453125 0l0 -5.546875q0 -1.84375 -1.796875 -1.84375q-1.421875 0 -1.953125 1.21875l0 6.171875l-1.4375 0l0 -8.453125l1.359375 0zm16.179688 8.609375q-1.71875 0 -2.796875 -1.125q-1.078125 -1.140625 -1.078125 -3.03125l0 -0.265625q0 -1.25 0.46875 -2.234375q0.484375 -1.0 1.34375 -1.546875q0.875 -0.5625 1.875 -0.5625q1.65625 0 2.5625 1.09375q0.921875 1.078125 0.921875 3.09375l0 0.609375l-5.734375 0q0.03125 1.25 0.734375 2.015625q0.703125 0.765625 1.78125 0.765625q0.765625 0 1.296875 -0.3125q0.53125 -0.3125 0.921875 -0.828125l0.890625 0.6875q-1.0625 1.640625 -3.1875 1.640625zm-0.1875 -7.578125q-0.875 0 -1.46875 0.640625q-0.59375 0.625 -0.734375 1.78125l4.234375 0l0 -0.109375q-0.0625 -1.109375 -0.59375 -1.703125q-0.53125 -0.609375 -1.4375 -0.609375zm11.2421875 8.609375l-7.15625 0l0 -1.1875l7.15625 0l0 1.1875zm4.515625 -2.21875q0.78125 0 1.359375 -0.46875q0.578125 -0.46875 0.640625 -1.171875l1.359375 0q-0.03125 0.734375 -0.5 1.390625q-0.453125 0.65625 -1.234375 1.046875q-0.765625 0.390625 -1.625 0.390625q-1.71875 0 -2.75 -1.15625q-1.015625 -1.15625 -1.015625 -3.15625l0 -0.234375q0 -1.234375 0.453125 -2.1875q0.453125 -0.96875 1.296875 -1.5q0.859375 -0.53125 2.015625 -0.53125q1.421875 0 2.359375 0.859375q0.9375 0.84375 1.0 2.203125l-1.359375 0q-0.0625 -0.828125 -0.625 -1.34375q-0.5625 -0.53125 -1.375 -0.53125q-1.109375 0 -1.71875 0.796875q-0.59375 0.78125 -0.59375 2.28125l0 0.28125q0 1.453125 0.59375 2.25q0.609375 0.78125 1.71875 0.78125zm4.609375 -3.28125q0 -1.234375 0.484375 -2.21875q0.484375 -1.0 1.359375 -1.53125q0.875 -0.546875 1.984375 -0.546875q1.734375 0 2.796875 1.203125q1.0625 1.1875 1.0625 3.171875l0 0.09375q0 1.234375 -0.46875 2.21875q-0.46875 0.984375 -1.359375 1.53125q-0.875 0.546875 -2.015625 0.546875q-1.71875 0 -2.78125 -1.1875q-1.0625 -1.203125 -1.0625 -3.171875l0 -0.109375zm1.453125 0.171875q0 1.40625 0.640625 2.265625q0.65625 0.84375 1.75 0.84375q1.109375 0 1.75 -0.859375q0.65625 -0.859375 0.65625 -2.421875q0 -1.390625 -0.671875 -2.25q-0.65625 -0.859375 -1.75 -0.859375q-1.0625 0 -1.71875 0.859375q-0.65625 0.84375 -0.65625 2.421875zm9.421875 -4.3125l0.046875 1.0625q0.96875 -1.21875 2.53125 -1.21875q2.671875 0 2.703125 3.015625l0 5.59375l-1.453125 0l0 -5.59375q0 -0.921875 -0.421875 -1.359375q-0.40625 -0.4375 -1.265625 -0.4375q-0.703125 0 -1.234375 0.375q-0.53125 0.375 -0.828125 0.984375l0 6.03125l-1.453125 0l0 -8.453125l1.375 0zm7.9375 8.453125l0 -7.34375l-1.328125 0l0 -1.109375l1.328125 0l0 -0.71875q0 -1.421875 0.8125 -2.203125q0.8125 -0.796875 2.28125 -0.796875q0.875 0 2.21875 0.484375l-0.25 1.21875q-0.96875 -0.390625 -1.859375 -0.390625q-0.921875 0 -1.34375 0.421875q-0.40625 0.40625 -0.40625 1.25l0 0.734375l1.734375 0l0 1.109375l-1.734375 0l0 7.34375l-1.453125 0zm6.03125 0l-1.453125 0l0 -8.453125l1.453125 0l0 8.453125zm2.0 -4.296875q0 -1.984375 0.90625 -3.140625q0.921875 -1.171875 2.4375 -1.171875q1.546875 0 2.40625 1.09375l0.078125 -0.9375l1.3125 0l0 8.25q0 1.640625 -0.96875 2.578125q-0.96875 0.953125 -2.609375 0.953125q-0.921875 0 -1.796875 -0.390625q-0.875 -0.390625 -1.328125 -1.0625l0.75 -0.875q0.921875 1.15625 2.265625 1.15625q1.0625 0 1.640625 -0.59375q0.59375 -0.59375 0.59375 -1.6875l0 -0.71875q-0.859375 1.0 -2.359375 1.0q-1.484375 0 -2.40625 -1.1875q-0.921875 -1.203125 -0.921875 -3.265625zm1.453125 0.15625q0 1.4375 0.578125 2.25q0.59375 0.8125 1.65625 0.8125q1.359375 0 2.0 -1.234375l0 -3.859375q-0.65625 -1.21875 -1.984375 -1.21875q-1.0625 0 -1.65625 0.828125q-0.59375 0.8125 -0.59375 2.421875z" fill-rule="nonzero"/>
        <path fill="#000000" fill-opacity="0.0" d="m424.24933 677.7362l74.01578 0" fill-rule="evenodd"/>
        <path stroke="#1155cc" stroke-width="2.0" stroke-linejoin="round" stroke-linecap="butt" d="m424.24933 677.7362l62.015778 0" fill-rule="evenodd"/>
        <path fill="#1155cc" stroke="#1155cc" stroke-width="2.0" stroke-linecap="butt" d="m486.2651 681.0397l9.076172 -3.3034668l-9.076172 -3.3034668z" fill-rule="evenodd"/>
        <path fill="#000000" fill-opacity="0.0" d="m509.0105 658.3504l179.18109 0l0 38.771667l-179.18109 0z" fill-rule="evenodd"/>
        <path fill="#1155cc" d="m518.7605 678.4135q0 -1.953125 0.921875 -3.125q0.921875 -1.1875 2.40625 -1.1875q1.484375 0 2.359375 1.015625l0 -4.40625l1.4375 0l0 12.0l-1.328125 0l-0.0625 -0.90625q-0.875 1.0625 -2.421875 1.0625q-1.46875 0 -2.390625 -1.203125q-0.921875 -1.203125 -0.921875 -3.140625l0 -0.109375zm1.4375 0.15625q0 1.4375 0.59375 2.25q0.59375 0.8125 1.640625 0.8125q1.375 0 2.015625 -1.234375l0 -3.875q-0.65625 -1.203125 -2.0 -1.203125q-1.0625 0 -1.65625 0.828125q-0.59375 0.8125 -0.59375 2.421875zm11.4453125 4.296875q-1.71875 0 -2.796875 -1.125q-1.078125 -1.140625 -1.078125 -3.03125l0 -0.265625q0 -1.25 0.46875 -2.234375q0.484375 -1.0 1.34375 -1.546875q0.875 -0.5625 1.875 -0.5625q1.65625 0 2.5625 1.09375q0.921875 1.078125 0.921875 3.09375l0 0.609375l-5.734375 0q0.03125 1.25 0.734375 2.015625q0.703125 0.765625 1.78125 0.765625q0.765625 0 1.296875 -0.3125q0.53125 -0.3125 0.921875 -0.828125l0.890625 0.6875q-1.0625 1.640625 -3.1875 1.640625zm-0.1875 -7.578125q-0.875 0 -1.46875 0.640625q-0.59375 0.625 -0.734375 1.78125l4.234375 0l0 -0.109375q-0.0625 -1.109375 -0.59375 -1.703125q-0.53125 -0.609375 -1.4375 -0.609375zm8.5390625 6.390625q0.78125 0 1.359375 -0.46875q0.578125 -0.46875 0.640625 -1.171875l1.359375 0q-0.03125 0.734375 -0.5 1.390625q-0.453125 0.65625 -1.234375 1.046875q-0.765625 0.390625 -1.625 0.390625q-1.71875 0 -2.75 -1.15625q-1.015625 -1.15625 -1.015625 -3.15625l0 -0.234375q0 -1.234375 0.453125 -2.1875q0.453125 -0.96875 1.296875 -1.5q0.859375 -0.53125 2.015625 -0.53125q1.421875 0 2.359375 0.859375q0.9375 0.84375 1.0 2.203125l-1.359375 0q-0.0625 -0.828125 -0.625 -1.34375q-0.5625 -0.53125 -1.375 -0.53125q-1.109375 0 -1.71875 0.796875q-0.59375 0.78125 -0.59375 2.28125l0 0.28125q0 1.453125 0.59375 2.25q0.609375 0.78125 1.71875 0.78125zm4.609375 -3.28125q0 -1.234375 0.484375 -2.21875q0.484375 -1.0 1.359375 -1.53125q0.875 -0.546875 1.984375 -0.546875q1.734375 0 2.796875 1.203125q1.0625 1.1875 1.0625 3.171875l0 0.09375q0 1.234375 -0.46875 2.21875q-0.46875 0.984375 -1.359375 1.53125q-0.875 0.546875 -2.015625 0.546875q-1.71875 0 -2.78125 -1.1875q-1.0625 -1.203125 -1.0625 -3.171875l0 -0.109375zm1.453125 0.171875q0 1.40625 0.640625 2.265625q0.65625 0.84375 1.75 0.84375q1.109375 0 1.75 -0.859375q0.65625 -0.859375 0.65625 -2.421875q0 -1.390625 -0.671875 -2.25q-0.65625 -0.859375 -1.75 -0.859375q-1.0625 0 -1.71875 0.859375q-0.65625 0.84375 -0.65625 2.421875zm7.703125 -0.15625q0 -1.953125 0.921875 -3.125q0.921875 -1.1875 2.40625 -1.1875q1.484375 0 2.359375 1.015625l0 -4.40625l1.4375 0l0 12.0l-1.328125 0l-0.0625 -0.90625q-0.875 1.0625 -2.421875 1.0625q-1.46875 0 -2.390625 -1.203125q-0.921875 -1.203125 -0.921875 -3.140625l0 -0.109375zm1.4375 0.15625q0 1.4375 0.59375 2.25q0.59375 0.8125 1.640625 0.8125q1.375 0 2.015625 -1.234375l0 -3.875q-0.65625 -1.203125 -2.0 -1.203125q-1.0625 0 -1.65625 0.828125q-0.59375 0.8125 -0.59375 2.421875zm11.4453125 4.296875q-1.71875 0 -2.796875 -1.125q-1.078125 -1.140625 -1.078125 -3.03125l0 -0.265625q0 -1.25 0.46875 -2.234375q0.484375 -1.0 1.34375 -1.546875q0.875 -0.5625 1.875 -0.5625q1.65625 0 2.5625 1.09375q0.921875 1.078125 0.921875 3.09375l0 0.609375l-5.734375 0q0.03125 1.25 0.734375 2.015625q0.703125 0.765625 1.78125 0.765625q0.765625 0 1.296875 -0.3125q0.53125 -0.3125 0.921875 -0.828125l0.890625 0.6875q-1.0625 1.640625 -3.1875 1.640625zm-0.1875 -7.578125q-0.875 0 -1.46875 0.640625q-0.59375 0.625 -0.734375 1.78125l4.234375 0l0 -0.109375q-0.0625 -1.109375 -0.59375 -1.703125q-0.53125 -0.609375 -1.4375 -0.609375zm11.2421875 8.609375l-7.15625 0l0 -1.1875l7.15625 0l0 1.1875zm1.84375 -1.1875l0 -7.34375l-1.34375 0l0 -1.109375l1.34375 0l0 -0.875q0 -1.359375 0.71875 -2.09375q0.734375 -0.75 2.0625 -0.75q0.5 0 0.984375 0.140625l-0.078125 1.171875q-0.359375 -0.078125 -0.78125 -0.078125q-0.703125 0 -1.09375 0.421875q-0.375 0.40625 -0.375 1.171875l0 0.890625l1.8125 0l0 1.109375l-1.8125 0l0 7.34375l-1.4375 0zm8.9296875 -7.15625q-0.328125 -0.0625 -0.71875 -0.0625q-1.421875 0 -1.921875 1.21875l0 6.0l-1.453125 0l0 -8.453125l1.40625 0l0.03125 0.96875q0.703125 -1.125 2.015625 -1.125q0.421875 0 0.640625 0.109375l0 1.34375zm6.2265625 7.15625q-0.125 -0.25 -0.203125 -0.890625q-1.0 1.046875 -2.40625 1.046875q-1.25 0 -2.046875 -0.703125q-0.796875 -0.71875 -0.796875 -1.796875q0 -1.328125 1.0 -2.046875q1.0 -0.734375 2.828125 -0.734375l1.40625 0l0 -0.671875q0 -0.75 -0.453125 -1.203125q-0.453125 -0.453125 -1.34375 -0.453125q-0.765625 0 -1.296875 0.390625q-0.515625 0.390625 -0.515625 0.953125l-1.453125 0q0 -0.640625 0.4375 -1.21875q0.453125 -0.59375 1.21875 -0.9375q0.78125 -0.34375 1.703125 -0.34375q1.453125 0 2.28125 0.734375q0.828125 0.71875 0.859375 2.0l0 3.890625q0 1.171875 0.296875 1.859375l0 0.125l-1.515625 0zm-2.390625 -1.109375q0.671875 0 1.28125 -0.34375q0.609375 -0.359375 0.890625 -0.921875l0 -1.734375l-1.140625 0q-2.65625 0 -2.65625 1.5625q0 0.671875 0.453125 1.0625q0.453125 0.375 1.171875 0.375zm7.234375 -7.34375l0.046875 0.9375q0.921875 -1.09375 2.5 -1.09375q1.78125 0 2.421875 1.359375q0.421875 -0.609375 1.09375 -0.984375q0.671875 -0.375 1.59375 -0.375q2.78125 0 2.828125 2.9375l0 5.671875l-1.4375 0l0 -5.578125q0 -0.90625 -0.421875 -1.359375q-0.40625 -0.453125 -1.390625 -0.453125q-0.796875 0 -1.328125 0.484375q-0.53125 0.484375 -0.625 1.296875l0 5.609375l-1.453125 0l0 -5.546875q0 -1.84375 -1.796875 -1.84375q-1.421875 0 -1.953125 1.21875l0 6.171875l-1.4375 0l0 -8.453125l1.359375 0zm16.179688 8.609375q-1.71875 0 -2.796875 -1.125q-1.078125 -1.140625 -1.078125 -3.03125l0 -0.265625q0 -1.25 0.46875 -2.234375q0.484375 -1.0 1.34375 -1.546875q0.875 -0.5625 1.875 -0.5625q1.65625 0 2.5625 1.09375q0.921875 1.078125 0.921875 3.09375l0 0.609375l-5.734375 0q0.03125 1.25 0.734375 2.015625q0.703125 0.765625 1.78125 0.765625q0.765625 0 1.296875 -0.3125q0.53125 -0.3125 0.921875 -0.828125l0.890625 0.6875q-1.0625 1.640625 -3.1875 1.640625zm-0.1875 -7.578125q-0.875 0 -1.46875 0.640625q-0.59375 0.625 -0.734375 1.78125l4.234375 0l0 -0.109375q-0.0625 -1.109375 -0.59375 -1.703125q-0.53125 -0.609375 -1.4375 -0.609375z" fill-rule="nonzero"/>
        <path fill="#000000" fill-opacity="0.0" d="m424.24933 715.4101l74.01578 0" fill-rule="evenodd"/>
        <path stroke="#666666" stroke-width="2.0" stroke-linejoin="round" stroke-linecap="butt" d="m424.24933 715.4101l62.015778 0" fill-rule="evenodd"/>
        <path fill="#666666" stroke="#666666" stroke-width="2.0" stroke-linecap="butt" d="m486.2651 718.71356l9.076172 -3.3034668l-9.076172 -3.3034668z" fill-rule="evenodd"/>
        <path fill="#000000" fill-opacity="0.0" d="m509.0105 696.0243l179.18109 0l0 38.771667l-179.18109 0z" fill-rule="evenodd"/>
        <path fill="#666666" d="m521.073 709.8843l0 2.046875l1.578125 0l0 1.109375l-1.578125 0l0 5.25q0 0.5 0.203125 0.765625q0.21875 0.25 0.71875 0.25q0.25 0 0.6875 -0.09375l0 1.171875q-0.5625 0.15625 -1.109375 0.15625q-0.96875 0 -1.46875 -0.578125q-0.484375 -0.59375 -0.484375 -1.671875l0 -5.25l-1.53125 0l0 -1.109375l1.53125 0l0 -2.046875l1.453125 0zm6.7734375 10.65625q-1.71875 0 -2.796875 -1.125q-1.078125 -1.140625 -1.078125 -3.03125l0 -0.265625q0 -1.25 0.46875 -2.234375q0.484375 -1.0 1.34375 -1.546875q0.875 -0.5625 1.875 -0.5625q1.65625 0 2.5625 1.09375q0.921875 1.078125 0.921875 3.09375l0 0.609375l-5.734375 0q0.03125 1.25 0.734375 2.015625q0.703125 0.765625 1.78125 0.765625q0.765625 0 1.296875 -0.3125q0.53125 -0.3125 0.921875 -0.828125l0.890625 0.6875q-1.0625 1.640625 -3.1875 1.640625zm-0.1875 -7.578125q-0.875 0 -1.46875 0.640625q-0.59375 0.625 -0.734375 1.78125l4.234375 0l0 -0.109375q-0.0625 -1.109375 -0.59375 -1.703125q-0.53125 -0.609375 -1.4375 -0.609375zm6.7265625 7.421875l-1.453125 0l0 -12.0l1.453125 0l0 12.0zm3.8828125 0l-1.453125 0l0 -12.0l1.453125 0l0 12.0zm8.3984375 1.1875l-7.15625 0l0 -1.1875l7.15625 0l0 1.1875zm2.484375 -9.640625l0.046875 0.9375q0.921875 -1.09375 2.5 -1.09375q1.78125 0 2.421875 1.359375q0.421875 -0.609375 1.09375 -0.984375q0.671875 -0.375 1.59375 -0.375q2.78125 0 2.828125 2.9375l0 5.671875l-1.4375 0l0 -5.578125q0 -0.90625 -0.421875 -1.359375q-0.40625 -0.453125 -1.390625 -0.453125q-0.796875 0 -1.328125 0.484375q-0.53125 0.484375 -0.625 1.296875l0 5.609375l-1.453125 0l0 -5.546875q0 -1.84375 -1.796875 -1.84375q-1.421875 0 -1.953125 1.21875l0 6.171875l-1.4375 0l0 -8.453125l1.359375 0zm16.179688 8.609375q-1.71875 0 -2.796875 -1.125q-1.078125 -1.140625 -1.078125 -3.03125l0 -0.265625q0 -1.25 0.46875 -2.234375q0.484375 -1.0 1.34375 -1.546875q0.875 -0.5625 1.875 -0.5625q1.65625 0 2.5625 1.09375q0.921875 1.078125 0.921875 3.09375l0 0.609375l-5.734375 0q0.03125 1.25 0.734375 2.015625q0.703125 0.765625 1.78125 0.765625q0.765625 0 1.296875 -0.3125q0.53125 -0.3125 0.921875 -0.828125l0.890625 0.6875q-1.0625 1.640625 -3.1875 1.640625zm-0.1875 -7.578125q-0.875 0 -1.46875 0.640625q-0.59375 0.625 -0.734375 1.78125l4.234375 0l0 -0.109375q-0.0625 -1.109375 -0.59375 -1.703125q-0.53125 -0.609375 -1.4375 -0.609375zm11.2421875 8.609375l-7.15625 0l0 -1.1875l7.15625 0l0 1.1875zm2.484375 -9.640625l0.046875 0.9375q0.921875 -1.09375 2.5 -1.09375q1.78125 0 2.421875 1.359375q0.421875 -0.609375 1.09375 -0.984375q0.671875 -0.375 1.59375 -0.375q2.78125 0 2.828125 2.9375l0 5.671875l-1.4375 0l0 -5.578125q0 -0.90625 -0.421875 -1.359375q-0.40625 -0.453125 -1.390625 -0.453125q-0.796875 0 -1.328125 0.484375q-0.53125 0.484375 -0.625 1.296875l0 5.609375l-1.453125 0l0 -5.546875q0 -1.84375 -1.796875 -1.84375q-1.421875 0 -1.953125 1.21875l0 6.171875l-1.4375 0l0 -8.453125l1.359375 0zm12.2890625 4.140625q0 -1.234375 0.484375 -2.21875q0.484375 -1.0 1.359375 -1.53125q0.875 -0.546875 1.984375 -0.546875q1.734375 0 2.796875 1.203125q1.0625 1.1875 1.0625 3.171875l0 0.09375q0 1.234375 -0.46875 2.21875q-0.46875 0.984375 -1.359375 1.53125q-0.875 0.546875 -2.015625 0.546875q-1.71875 0 -2.78125 -1.1875q-1.0625 -1.203125 -1.0625 -3.171875l0 -0.109375zm1.453125 0.171875q0 1.40625 0.640625 2.265625q0.65625 0.84375 1.75 0.84375q1.109375 0 1.75 -0.859375q0.65625 -0.859375 0.65625 -2.421875q0 -1.390625 -0.671875 -2.25q-0.65625 -0.859375 -1.75 -0.859375q-1.0625 0 -1.71875 0.859375q-0.65625 0.84375 -0.65625 2.421875zm12.140625 -3.015625q-0.328125 -0.0625 -0.71875 -0.0625q-1.421875 0 -1.921875 1.21875l0 6.0l-1.453125 0l0 -8.453125l1.40625 0l0.03125 0.96875q0.703125 -1.125 2.015625 -1.125q0.421875 0 0.640625 0.109375l0 1.34375zm4.6875 7.3125q-1.71875 0 -2.796875 -1.125q-1.078125 -1.140625 -1.078125 -3.03125l0 -0.265625q0 -1.25 0.46875 -2.234375q0.484375 -1.0 1.34375 -1.546875q0.875 -0.5625 1.875 -0.5625q1.65625 0 2.5625 1.09375q0.921875 1.078125 0.921875 3.09375l0 0.609375l-5.734375 0q0.03125 1.25 0.734375 2.015625q0.703125 0.765625 1.78125 0.765625q0.765625 0 1.296875 -0.3125q0.53125 -0.3125 0.921875 -0.828125l0.890625 0.6875q-1.0625 1.640625 -3.1875 1.640625zm-0.1875 -7.578125q-0.875 0 -1.46875 0.640625q-0.59375 0.625 -0.734375 1.78125l4.234375 0l0 -0.109375q-0.0625 -1.109375 -0.59375 -1.703125q-0.53125 -0.609375 -1.4375 -0.609375z" fill-rule="nonzero"/>
        <path fill="#000000" fill-opacity="0.0" d="m232.11154 281.12686c-37.158127 0 -74.32414 84.06299 -74.31627 168.12598c0.007873535 84.06302 37.189636 168.126 74.37927 168.126" fill-rule="evenodd"/>
        <path stroke="#38761d" stroke-width="2.0" stroke-linejoin="round" stroke-linecap="butt" d="m232.11154 281.12686c-37.158127 0 -74.32414 84.06299 -74.31627 168.12598c0.0039367676 42.031494 9.301346 84.06296 23.246475 115.58658c6.9725647 15.761841 15.107056 28.896667 23.822754 38.091064c4.3578644 4.597229 8.861008 8.20929 13.43689 10.672058c0.57199097 0.30786133 1.1450958 0.5977783 1.719223 0.86938477c0.14350891 0.067871094 0.28710938 0.13464355 0.43077087 0.20025635l0.029342651 0.013122559" fill-rule="evenodd"/>
        <path fill="#38761d" stroke="#38761d" stroke-width="2.0" stroke-linecap="butt" d="m219.73924 617.90454l9.58609 -1.1820068l-8.103119 -5.2563477z" fill-rule="evenodd"/>
        <path fill="#000000" fill-opacity="0.0" d="m188.76164 192.9738l56.472443 56.472443" fill-rule="evenodd"/>
        <path stroke="#351c75" stroke-width="2.0" stroke-linejoin="round" stroke-linecap="butt" d="m188.76164 192.97382l47.987167 47.987167" fill-rule="evenodd"/>
        <path fill="#351c75" stroke="#351c75" stroke-width="2.0" stroke-linecap="butt" d="m234.4129 243.29688l8.753738 4.0819397l-4.0819244 -8.753738z" fill-rule="evenodd"/>
        <path fill="#000000" fill-opacity="0.0" d="m424.24933 753.084l74.01578 0" fill-rule="evenodd"/>
        <path stroke="#351c75" stroke-width="2.0" stroke-linejoin="round" stroke-linecap="butt" d="m424.24933 753.084l62.015778 0" fill-rule="evenodd"/>
        <path fill="#351c75" stroke="#351c75" stroke-width="2.0" stroke-linecap="butt" d="m486.2651 756.38745l9.076172 -3.3034668l-9.076172 -3.3034668z" fill-rule="evenodd"/>
        <path fill="#000000" fill-opacity="0.0" d="m509.0105 733.6982l179.18109 0l0 38.771606l-179.18109 0z" fill-rule="evenodd"/>
        <path fill="#351c75" d="m523.198 750.9019q-0.328125 -0.0625 -0.71875 -0.0625q-1.421875 0 -1.921875 1.21875l0 6.0l-1.453125 0l0 -8.453125l1.40625 0l0.03125 0.96875q0.703125 -1.125 2.015625 -1.125q0.421875 0 0.640625 0.109375l0 1.34375zm4.6875 7.3125q-1.71875 0 -2.796875 -1.125q-1.078125 -1.140625 -1.078125 -3.03125l0 -0.265625q0 -1.25 0.46875 -2.234375q0.484375 -1.0 1.34375 -1.546875q0.875 -0.5625 1.875 -0.5625q1.65625 0 2.5625 1.09375q0.921875 1.078125 0.921875 3.09375l0 0.609375l-5.734375 0q0.03125 1.25 0.734375 2.015625q0.703125 0.765625 1.78125 0.765625q0.765625 0 1.296875 -0.3125q0.53125 -0.3125 0.921875 -0.828125l0.890625 0.6875q-1.0625 1.640625 -3.1875 1.640625zm-0.1875 -7.578125q-0.875 0 -1.46875 0.640625q-0.59375 0.625 -0.734375 1.78125l4.234375 0l0 -0.109375q-0.0625 -1.109375 -0.59375 -1.703125q-0.53125 -0.609375 -1.4375 -0.609375zm10.0703125 5.171875q0 -0.578125 -0.4375 -0.90625q-0.4375 -0.328125 -1.546875 -0.5625q-1.09375 -0.234375 -1.734375 -0.5625q-0.640625 -0.328125 -0.953125 -0.78125q-0.3125 -0.453125 -0.3125 -1.078125q0 -1.03125 0.875 -1.75q0.890625 -0.71875 2.25 -0.71875q1.4375 0 2.328125 0.75q0.90625 0.734375 0.90625 1.890625l-1.453125 0q0 -0.59375 -0.515625 -1.015625q-0.5 -0.4375 -1.265625 -0.4375q-0.78125 0 -1.234375 0.34375q-0.4375 0.34375 -0.4375 0.890625q0 0.53125 0.40625 0.796875q0.421875 0.265625 1.5 0.515625q1.078125 0.234375 1.75 0.578125q0.671875 0.328125 1.0 0.796875q0.328125 0.46875 0.328125 1.15625q0 1.125 -0.90625 1.8125q-0.90625 0.6875 -2.359375 0.6875q-1.015625 0 -1.796875 -0.359375q-0.78125 -0.359375 -1.21875 -1.0q-0.4375 -0.65625 -0.4375 -1.40625l1.4375 0q0.046875 0.734375 0.578125 1.15625q0.546875 0.421875 1.4375 0.421875q0.828125 0 1.3125 -0.328125q0.5 -0.328125 0.5 -0.890625zm5.296875 -8.25l0 2.046875l1.578125 0l0 1.109375l-1.578125 0l0 5.25q0 0.5 0.203125 0.765625q0.21875 0.25 0.71875 0.25q0.25 0 0.6875 -0.09375l0 1.171875q-0.5625 0.15625 -1.109375 0.15625q-0.96875 0 -1.46875 -0.578125q-0.484375 -0.59375 -0.484375 -1.671875l0 -5.25l-1.53125 0l0 -1.109375l1.53125 0l0 -2.046875l1.453125 0zm8.4765625 10.5q-0.125 -0.25 -0.203125 -0.890625q-1.0 1.046875 -2.40625 1.046875q-1.25 0 -2.046875 -0.703125q-0.796875 -0.71875 -0.796875 -1.796875q0 -1.328125 1.0 -2.046875q1.0 -0.734375 2.828125 -0.734375l1.40625 0l0 -0.671875q0 -0.75 -0.453125 -1.203125q-0.453125 -0.453125 -1.34375 -0.453125q-0.765625 0 -1.296875 0.390625q-0.515625 0.390625 -0.515625 0.953125l-1.453125 0q0 -0.640625 0.4375 -1.21875q0.453125 -0.59375 1.21875 -0.9375q0.78125 -0.34375 1.703125 -0.34375q1.453125 0 2.28125 0.734375q0.828125 0.71875 0.859375 2.0l0 3.890625q0 1.171875 0.296875 1.859375l0 0.125l-1.515625 0zm-2.390625 -1.109375q0.671875 0 1.28125 -0.34375q0.609375 -0.359375 0.890625 -0.921875l0 -1.734375l-1.140625 0q-2.65625 0 -2.65625 1.5625q0 0.671875 0.453125 1.0625q0.453125 0.375 1.171875 0.375zm9.96875 -6.046875q-0.328125 -0.0625 -0.71875 -0.0625q-1.421875 0 -1.921875 1.21875l0 6.0l-1.453125 0l0 -8.453125l1.40625 0l0.03125 0.96875q0.703125 -1.125 2.015625 -1.125q0.421875 0 0.640625 0.109375l0 1.34375zm3.6796875 -3.34375l0 2.046875l1.578125 0l0 1.109375l-1.578125 0l0 5.25q0 0.5 0.203125 0.765625q0.21875 0.25 0.71875 0.25q0.25 0 0.6875 -0.09375l0 1.171875q-0.5625 0.15625 -1.109375 0.15625q-0.96875 0 -1.46875 -0.578125q-0.484375 -0.59375 -0.484375 -1.671875l0 -5.25l-1.53125 0l0 -1.109375l1.53125 0l0 -2.046875l1.453125 0zm9.3515625 11.6875l-7.15625 0l0 -1.1875l7.15625 0l0 1.1875zm1.84375 -1.1875l0 -7.34375l-1.34375 0l0 -1.109375l1.34375 0l0 -0.875q0 -1.359375 0.71875 -2.09375q0.734375 -0.75 2.0625 -0.75q0.5 0 0.984375 0.140625l-0.078125 1.171875q-0.359375 -0.078125 -0.78125 -0.078125q-0.703125 0 -1.09375 0.421875q-0.375 0.40625 -0.375 1.171875l0 0.890625l1.8125 0l0 1.109375l-1.8125 0l0 7.34375l-1.4375 0zm8.9296875 -7.15625q-0.328125 -0.0625 -0.71875 -0.0625q-1.421875 0 -1.921875 1.21875l0 6.0l-1.453125 0l0 -8.453125l1.40625 0l0.03125 0.96875q0.703125 -1.125 2.015625 -1.125q0.421875 0 0.640625 0.109375l0 1.34375zm6.2265625 7.15625q-0.125 -0.25 -0.203125 -0.890625q-1.0 1.046875 -2.40625 1.046875q-1.25 0 -2.046875 -0.703125q-0.796875 -0.71875 -0.796875 -1.796875q0 -1.328125 1.0 -2.046875q1.0 -0.734375 2.828125 -0.734375l1.40625 0l0 -0.671875q0 -0.75 -0.453125 -1.203125q-0.453125 -0.453125 -1.34375 -0.453125q-0.765625 0 -1.296875 0.390625q-0.515625 0.390625 -0.515625 0.953125l-1.453125 0q0 -0.640625 0.4375 -1.21875q0.453125 -0.59375 1.21875 -0.9375q0.78125 -0.34375 1.703125 -0.34375q1.453125 0 2.28125 0.734375q0.828125 0.71875 0.859375 2.0l0 3.890625q0 1.171875 0.296875 1.859375l0 0.125l-1.515625 0zm-2.390625 -1.109375q0.671875 0 1.28125 -0.34375q0.609375 -0.359375 0.890625 -0.921875l0 -1.734375l-1.140625 0q-2.65625 0 -2.65625 1.5625q0 0.671875 0.453125 1.0625q0.453125 0.375 1.171875 0.375zm7.234375 -7.34375l0.046875 0.9375q0.921875 -1.09375 2.5 -1.09375q1.78125 0 2.421875 1.359375q0.421875 -0.609375 1.09375 -0.984375q0.671875 -0.375 1.59375 -0.375q2.78125 0 2.828125 2.9375l0 5.671875l-1.4375 0l0 -5.578125q0 -0.90625 -0.421875 -1.359375q-0.40625 -0.453125 -1.390625 -0.453125q-0.796875 0 -1.328125 0.484375q-0.53125 0.484375 -0.625 1.296875l0 5.609375l-1.453125 0l0 -5.546875q0 -1.84375 -1.796875 -1.84375q-1.421875 0 -1.953125 1.21875l0 6.171875l-1.4375 0l0 -8.453125l1.359375 0zm16.179688 8.609375q-1.71875 0 -2.796875 -1.125q-1.078125 -1.140625 -1.078125 -3.03125l0 -0.265625q0 -1.25 0.46875 -2.234375q0.484375 -1.0 1.34375 -1.546875q0.875 -0.5625 1.875 -0.5625q1.65625 0 2.5625 1.09375q0.921875 1.078125 0.921875 3.09375l0 0.609375l-5.734375 0q0.03125 1.25 0.734375 2.015625q0.703125 0.765625 1.78125 0.765625q0.765625 0 1.296875 -0.3125q0.53125 -0.3125 0.921875 -0.828125l0.890625 0.6875q-1.0625 1.640625 -3.1875 1.640625zm-0.1875 -7.578125q-0.875 0 -1.46875 0.640625q-0.59375 0.625 -0.734375 1.78125l4.234375 0l0 -0.109375q-0.0625 -1.109375 -0.59375 -1.703125q-0.53125 -0.609375 -1.4375 -0.609375zm10.546875 9.53125l-1.15625 0l0 -13.484375l1.15625 0l0 13.484375zm13.40625 -6.96875q0 2.546875 -0.875 3.78125q-0.859375 1.234375 -2.703125 1.234375q-1.8125 0 -2.6875 -1.203125q-0.875 -1.21875 -0.90625 -3.609375l0 -1.9375q0 -2.5 0.859375 -3.71875q0.875 -1.21875 2.71875 -1.21875q1.84375 0 2.703125 1.171875q0.875 1.171875 0.890625 3.625l0 1.875zm-1.4375 -1.96875q0 -1.84375 -0.515625 -2.671875q-0.515625 -0.84375 -1.640625 -0.84375q-1.109375 0 -1.625 0.84375q-0.5 0.828125 -0.515625 2.5625l0 2.3125q0 1.84375 0.53125 2.71875q0.546875 0.875 1.625 0.875q1.078125 0 1.59375 -0.828125q0.515625 -0.828125 0.546875 -2.609375l0 -2.359375zm6.28125 1.453125l1.875 -3.078125l1.6875 0l-2.765625 4.171875l2.84375 4.28125l-1.671875 0l-1.953125 -3.171875l-1.953125 3.171875l-1.671875 0l2.84375 -4.28125l-2.765625 -4.171875l1.671875 0l1.859375 3.078125zm12.0703125 0.515625q0 2.546875 -0.875 3.78125q-0.859375 1.234375 -2.703125 1.234375q-1.8125 0 -2.6875 -1.203125q-0.875 -1.21875 -0.90625 -3.609375l0 -1.9375q0 -2.5 0.859375 -3.71875q0.875 -1.21875 2.71875 -1.21875q1.84375 0 2.703125 1.171875q0.875 1.171875 0.890625 3.625l0 1.875zm-1.4375 -1.96875q0 -1.84375 -0.515625 -2.671875q-0.515625 -0.84375 -1.640625 -0.84375q-1.109375 0 -1.625 0.84375q-0.5 0.828125 -0.515625 2.5625l0 2.3125q0 1.84375 0.53125 2.71875q0.546875 0.875 1.625 0.875q1.078125 0 1.59375 -0.828125q0.515625 -0.828125 0.546875 -2.609375l0 -2.359375zm10.1875 -1.578125q0 0.84375 -0.453125 1.515625q-0.4375 0.65625 -1.203125 1.03125q0.890625 0.390625 1.40625 1.125q0.515625 0.734375 0.515625 1.65625q0 1.484375 -1.0 2.359375q-0.984375 0.875 -2.609375 0.875q-1.640625 0 -2.640625 -0.875q-0.984375 -0.890625 -0.984375 -2.359375q0 -0.921875 0.5 -1.65625q0.515625 -0.75 1.40625 -1.125q-0.765625 -0.375 -1.203125 -1.03125q-0.4375 -0.671875 -0.4375 -1.515625q0 -1.4375 0.921875 -2.28125q0.921875 -0.84375 2.4375 -0.84375q1.5 0 2.421875 0.84375q0.921875 0.84375 0.921875 2.28125zm-1.171875 5.296875q0 -0.953125 -0.609375 -1.546875q-0.609375 -0.609375 -1.59375 -0.609375q-0.96875 0 -1.5625 0.59375q-0.578125 0.59375 -0.578125 1.5625q0 0.96875 0.5625 1.53125q0.578125 0.546875 1.609375 0.546875q1.015625 0 1.59375 -0.546875q0.578125 -0.5625 0.578125 -1.53125zm-2.171875 -7.234375q-0.859375 0 -1.390625 0.53125q-0.515625 0.515625 -0.515625 1.421875q0 0.875 0.515625 1.40625q0.515625 0.53125 1.375 0.53125q0.875 0 1.390625 -0.53125q0.53125 -0.53125 0.53125 -1.390625q0 -0.875 -0.546875 -1.421875q-0.53125 -0.546875 -1.359375 -0.546875z" fill-rule="nonzero"/>
        <path fill="#000000" fill-opacity="0.0" d="m276.9134 494.0516c0 24.788177 -19.656372 58.359528 -38.181107 49.576385c-18.52475 -8.783142 -35.917892 -59.920746 -38.181107 -106.89435c-2.263214 -46.973633 10.603485 -89.783264 22.338577 -106.89438c11.735107 -17.111115 22.338593 -8.523743 22.338593 -17.047485" fill-rule="evenodd"/>
        <path stroke="#1155cc" stroke-width="2.0" stroke-linejoin="round" stroke-linecap="butt" d="m276.9134 494.05164c0 24.788147 -19.656372 58.359497 -38.181107 49.576355c-18.52475 -8.783142 -35.917892 -59.920715 -38.181107 -106.89435c-2.2632294 -46.973633 10.6035 -89.783264 22.338593 -106.89438c2.9337616 -4.2778015 5.796814 -6.9494324 8.441147 -8.683777c0.6610718 -0.43359375 1.3084717 -0.80859375 1.9399109 -1.135498c0.3157196 -0.16345215 0.62742615 -0.31484985 0.9348602 -0.4555359c0.1537323 -0.07034302 0.30636597 -0.13800049 0.457901 -0.20315552l0.4124298 -0.17184448" fill-rule="evenodd"/>
        <path fill="#1155cc" stroke="#1155cc" stroke-width="2.0" stroke-linecap="butt" d="m236.83723 321.98425l5.9174957 -7.6336975l-9.439911 2.0440674z" fill-rule="evenodd"/>
        <path fill="#000000" fill-opacity="0.0" d="m472.20947 144.68587c0 2.4825134 9.531769 9.491394 19.06128 4.965042c9.5295105 -4.526352 19.056763 -20.587952 19.06128 -36.649452c0.004486084 -16.061508 -9.513763 -32.12294 -19.029785 -36.649452c-9.516022 -4.526512 -19.029785 2.4818878 -19.029785 4.9637756" fill-rule="evenodd"/>
        <path stroke="#666666" stroke-width="2.0" stroke-linejoin="round" stroke-linecap="butt" d="m472.20947 144.68585c0 2.4825287 9.531738 9.491409 19.06128 4.9650574c9.529541 -4.526367 19.056763 -20.587952 19.06128 -36.649452c0.004486084 -16.061508 -9.513794 -32.12294 -19.029785 -36.649452c-2.3790283 -1.13163 -4.7578735 -1.5423279 -6.9879456 -1.4830475c-0.55752563 0.014816284 -1.1057739 0.059005737 -1.642395 0.12865448l-0.18148804 0.025817871" fill-rule="evenodd"/>
        <path fill="#666666" stroke="#666666" stroke-width="2.0" stroke-linecap="butt" d="m480.7582 72.21055l-5.9961243 7.572098l9.460541 -1.9463272z" fill-rule="evenodd"/>
        <path fill="#000000" fill-opacity="0.0" d="m472.20947 312.81186c0 2.4825134 9.531769 9.491394 19.06128 4.965027c9.5295105 -4.5263367 19.056763 -20.587952 19.06128 -36.649445c0.004486084 -16.061523 -9.513763 -32.12294 -19.029785 -36.64946c-9.516022 -4.5265045 -19.029785 2.4818878 -19.029785 4.963791" fill-rule="evenodd"/>
        <path stroke="#666666" stroke-width="2.0" stroke-linejoin="round" stroke-linecap="butt" d="m472.20947 312.81183c0 2.482544 9.531738 9.491425 19.06128 4.9650574c9.529541 -4.526367 19.056763 -20.587921 19.06128 -36.649445c0.004486084 -16.061523 -9.513794 -32.122925 -19.029785 -36.64946c-2.3790283 -1.1316223 -4.7578735 -1.5423279 -6.9879456 -1.4830475c-0.55752563 0.014801025 -1.1057739 0.059020996 -1.642395 0.12864685l-0.18148804 0.025817871" fill-rule="evenodd"/>
        <path fill="#666666" stroke="#666666" stroke-width="2.0" stroke-linecap="butt" d="m480.7582 240.33653l-5.9961243 7.572098l9.460541 -1.9463348z" fill-rule="evenodd"/>
        <path fill="#000000" fill-opacity="0.0" d="m472.20947 482.81842c0 2.4825134 9.531769 9.491394 19.06128 4.965027c9.5295105 -4.5263367 19.056763 -20.587952 19.06128 -36.649445c0.004486084 -16.061523 -9.513763 -32.122925 -19.029785 -36.649445c-9.516022 -4.52652 -19.029785 2.4818726 -19.029785 4.9637756" fill-rule="evenodd"/>
        <path stroke="#666666" stroke-width="2.0" stroke-linejoin="round" stroke-linecap="butt" d="m472.20947 482.81842c0 2.4825134 9.531738 9.491364 19.06128 4.9650574c9.529541 -4.5263977 19.056763 -20.587982 19.06128 -36.649506c0.004486084 -16.061462 -9.513794 -32.122894 -19.029785 -36.649445c-2.3790283 -1.1315918 -4.7578735 -1.5422974 -6.9879456 -1.4830017c-0.55752563 0.014801025 -1.1057739 0.05899048 -1.642395 0.12863159l-0.18148804 0.025848389" fill-rule="evenodd"/>
        <path fill="#666666" stroke="#666666" stroke-width="2.0" stroke-linecap="butt" d="m480.7582 410.3431l-5.9961243 7.5720825l9.460541 -1.9463196z" fill-rule="evenodd"/>
    </g>
</svg>
